<svg version="1.2" xmlns="http://www.w3.org/2000/svg" viewBox="0 0 442 505" width="442" height="505">
	<title>adorno2</title>
	<style>
		.s0 { fill: #000000 } 
	</style>
	<path id="Path 0" fill-rule="evenodd" class="s0" d="m150.5 159.5c5.5 0.3 7.4 0.9 9 2.5 1.5 1.6 4.4 2.4 12.5 3.6 5.8 0.8 15.4 1.9 21.5 2.3 6.1 0.5 12.1 1.2 13.5 1.6 1.4 0.4 2.9 1.2 3.5 1.7 0.6 0.4 3.3 0.8 6 0.7 2.8 0 11.3-0.2 19-0.3 7.7-0.2 15.6-0.6 17.5-1.1 3.3-0.7 3.4-0.8 1.5-2.2-2-1.3-2-1.3 0.3-1.3 1.5 0 2.2 0.6 2.2 2 0 1.1 0.8 2.3 1.7 2.7 1 0.3 7.8 0.8 15.1 1 11.2 0.2 13.2 0.1 13.2-1.2 0-0.8 0.4-1.5 1-1.5 0.6 0 0.8-0.7 0.5-1.5-0.3-0.8 0.1-1.5 0.8-1.4 0.6 0 1.9 0.3 2.7 0.7 0.8 0.4 1.7 1.4 1.9 2.2q0.3 1.5-1 0.8c-0.8-0.3-2.1-0.2-2.9 0.3-0.8 0.5-1.1 0.9-0.5 1 0.6 0 1.9 0.3 3 0.6 1.1 0.3 3.8 0.7 6 1 2.2 0.3 4.4 0.9 5 1.3 0.6 0.5 3.3 0.7 6 0.6 2.8-0.1 6.6 0 8.5 0.4 1.9 0.3 5.5 0.3 7.8 0 3.2-0.4 5.2 0 7.5 1.4 2.7 1.5 5.2 1.8 14.7 1.7 6.8 0 13.1 0.4 15.4 1.2 2.1 0.6 4.5 2 5.5 3 0.9 1 2.2 1.8 2.9 1.7 0.6 0 1.2 0.4 1.2 1 0 0.6 2.1 3.1 4.6 5.8 2.6 2.6 5.3 5.6 6 6.7 0.8 1.1 1.4 2.3 1.4 2.8 0 0.4-1.1 1.7-2.3 3-1.3 1.2-4.9 3.8-8 5.7-3 1.9-6.4 4.8-7.5 6.5-1.1 1.7-2.2 4.5-2.6 6.3-0.3 1.8-0.2 3.4 0.4 3.7 0.6 0.3 1-0.2 1-1 0-0.9 0.6-1.3 1.5-1 0.9 0.3 1.9-0.4 2.5-1.5 0.6-1.1 1.4-1.8 2-1.5 0.6 0.3 1.2-0.3 1.5-1.3 0.3-0.9 3.1-2.9 6.3-4.4 3.1-1.4 7.3-2.9 9.2-3.2 1.9-0.3 5.8-0.9 8.5-1.3 3.9-0.5 5.6-0.2 8 1.2 1.6 1 4.5 3.3 6.3 5.2 1.9 1.9 3.2 4.3 3.2 5.8 0 1.4-0.4 2.3-1 2-0.6-0.3-0.8 0.4-0.5 1.5 0.3 1.1-0.2 2.7-1 3.5-0.8 0.8-1.5 1.8-1.5 2.3 0 0.4 0.8 1.6 1.8 2.6 1 1.1 1.1 1.6 0.3 1-1.2-0.7-1.3-0.3-0.6 2.6 0.4 1.9 0.7 5.3 0.6 7.5-0.1 2.2-0.7 4.2-1.2 4.5-0.5 0.3-1.1 2.8-1.2 5.5-0.2 2.8-0.9 5.9-1.4 7-0.6 1.1-0.8 2.7-0.4 3.5 0.4 0.8 0.7 1.9 0.6 2.5-0.1 0.6-1.4 3.5-2.9 6.5-1.5 3-3 6.9-3.2 8.5-0.3 1.6-1.4 4.2-2.5 5.8-1 1.5-2.7 3.9-3.7 5.5-1 1.5-3.5 5.2-5.5 8.2-1.9 3-5.5 7.6-7.9 10.1-3.4 3.6-4.9 4.5-7.3 4.4-1.6-0.1-4.5-0.6-6.4-1.1-1.9-0.5-3.9-1.9-4.5-3.1-0.9-1.8-0.7-2.7 0.9-4.9 1.1-1.5 2.4-3.3 3-4.1 0.7-1.1 0.4-1.9-1.5-3.4-1.4-1.1-3.6-2-5-2-1.4 0-4.6 1.2-7.2 2.6-2.9 1.5-5 3.4-5.4 4.8-0.3 1.2-0.4 3.1-0.2 4.2 0.1 1.1-0.3 3.4-1 5-0.8 1.6-1.2 4.9-1 7.2 0.2 2.4 0 4.3-0.4 4.3-0.5 0-1.1 1.5-1.4 3.3-0.4 1.7-1.1 3.4-1.6 3.7-0.6 0.3-0.7 2.1-0.4 4 0.4 2.1 1.5 4 2.8 4.8 1.3 0.8 2.5 1 2.8 0.5 0.3-0.4 1.6-1 3-1.2 1.4-0.1 2.8-0.8 3.2-1.5 0.4-0.6 0.8-0.8 0.8-0.3 0 0.4 1.4 0.3 3-0.3 2.9-1 3-0.9 2.4 1.8-0.3 1.5-0.7 5-0.9 7.7-0.3 2.8-0.7 5.2-1 5.5-0.3 0.3 0.1 1.1 0.8 1.9 0.7 0.9 1.2 4.7 1.3 10.5 0 5 0.1 12 0.2 15.6 0.1 6.3 0.3 6.6 5.5 12.5 2.9 3.3 7.2 8.8 9.5 12.3 2.3 3.4 4.2 6.6 4.2 7.2 0 0.6 0.4 1 1 1 0.6 0 1.3 1 1.6 2.3 0.4 1.2 1.9 4 3.3 6.2 1.4 2.2 6.3 7.7 10.8 12.3 4.6 4.5 8.5 8 8.8 7.7 0.3-0.3 1.2 0.2 2 1 0.8 0.8 2.2 1.5 3 1.5 0.8 0 1.5-0.4 1.5-1 0-0.7 1.1-0.6 3.3 0.1 1.7 0.5 4.3 1.9 5.7 3.1 1.4 1.1 3.5 3.4 4.8 5.2 1.3 1.7 3.7 4 5.5 5.1 1.8 1.1 4.1 2.9 5.2 4 1.1 1.1 1.9 2.3 1.7 2.8-0.1 0.4 0.2 0.7 0.8 0.7 0.6 0 1 6.8 1 37h-60v-10.3c0-5.6-0.5-13.2-1-16.9-0.6-3.8-1.4-7.6-2-8.6-0.5-0.9-2.2-4.6-3.7-8.2-2.5-5.9-2.7-8-3.4-24.5-0.4-9.9-1.2-19.8-1.7-22-0.6-2.2-1.7-5.6-2.5-7.5-0.8-1.9-2.4-3.8-3.6-4.3-1.6-0.5-2.7 0-4.7 2-1.4 1.6-3.1 3.9-3.8 5.3-0.7 1.4-3.1 5.9-5.3 10-2.3 4.1-4.9 9-5.9 10.9-1.1 1.9-2.3 4.1-2.9 4.8-0.6 0.7-3.9 4.4-7.5 8.2-3.6 3.8-9.2 8.5-12.5 10.6-3.3 2.1-7.2 5.2-8.6 6.9-1.4 1.7-4.6 4.4-7 6.1-2.4 1.6-6.4 4.5-8.9 6.4-2.5 1.9-4.9 4-5.5 4.6-0.6 0.6-4.8 3.3-9.5 6-4.7 2.7-9.1 5.4-9.8 6.2-0.7 0.7-1.8 1.3-2.3 1.3-0.5 0-3.5 1.2-6.6 2.6-3.2 1.4-6 2.9-6.3 3.2-0.3 0.4-3.2 2.2-12.5 7.2l-86-0.5-8.7-4.3c-4.9-2.3-9.6-4.2-10.5-4.2-1-0.1-2.4 0.5-3.1 1.2-0.6 0.7-1.3 2.8-1.7 7.8h-14.5l1.3-15.5-5.6-5.8c-3.2-3.1-5.7-6-5.7-6.5 0.1-0.4-1-1.9-2.2-3.3-1.3-1.5-4.8-5.5-7.8-9-3-3.5-6.2-7.7-7.1-9.4-0.9-1.6-2.3-4.4-3.2-6-0.9-1.6-1.7-4.2-1.7-5.8 0-2 0.8-3.2 3.3-4.7 1.7-1.1 5-2.2 7.2-2.5 2.2-0.3 5.8-0.7 8-0.8 2.2-0.2 7.4 0.3 11.5 1 4.1 0.8 8.7 1.6 10.3 1.9 1.5 0.2 2.7 0 2.7-0.6 0-0.6 0.7-1 1.5-1 0.8 0 2.5-0.6 3.8-1.3 1.2-0.6 2.4-1.6 2.7-2 0.3-0.5 0.9-0.7 1.5-0.5 0.5 0.1 1.4-0.7 2-1.8 0.5-1.2 2.1-3.1 3.5-4.3 1.4-1.2 2.7-2.2 3-2.3 0.3 0 1.8-0.1 3.3-0.2 1.6 0 3.4 0.5 4 1.3 0.7 0.8 1.1 3.5 0.9 6-0.1 2.5 0.1 5.1 0.5 5.7 0.5 0.6 2 1.3 3.5 1.5 1.5 0.2 2.8 0.1 2.8-0.4 0-0.4 1.2-1.4 2.8-2.2 1.5-0.8 4.1-2.7 5.9-4.2 1.8-1.5 3.2-3.5 3.2-4.3 0-0.8 0.7-2.2 1.6-3 0.9-0.8 1.6-1.2 1.5-0.8 0 0.5 0.9-0.1 2-1.2 1.1-1.1 3.9-2.9 6.3-3.9 2.3-1.1 5.1-2.9 6.2-4 1.1-1.2 2.6-2.2 3.3-2.1 0.7 0 2.1-0.7 3-1.6 0.9-0.8 2.1-1.3 2.7-1 0.6 0.3 2-0.6 3.3-2 1.2-1.3 1.9-2.6 1.5-2.9-0.5-0.3 0-0.5 1-0.5 0.9 0 1.5-0.4 1.2-1-0.3-0.6 0.4-0.4 1.4 0.2 1.2 0.8 1.7 1.9 1.3 2.8q-0.7 1.5 0.6 0.7c0.6-0.4 1.2-0.4 1.2 0 0 0.5-0.4 1.2-1 1.8-0.7 0.7-0.6 1.2 0.5 1.7q1.5 0.8 0.9-0.5c-0.3-0.6 0.2-1.5 1-2 1.2-0.5 1.5-0.2 1.1 1.3-0.4 1.5-0.1 1.9 1.3 1.6 0.9-0.2 2.5-0.8 3.6-1.3 1.5-0.7 1.7-0.5 1 1-0.7 1.5-0.4 1.9 1.4 2.3 1.2 0.2 2 0.8 1.7 1.4-0.3 0.6 0.2 0.8 1 0.5 0.8-0.3 1.5-0.1 1.5 0.5 0 0.6-0.3 1.2-0.7 1.3-0.5 0.2-0.2 0.2 0.5 0 0.6-0.1 1.5 0.5 1.8 1.4 0.6 1.6 0.8 1.6 1.5 0.3 0.7-1.3 0.9-1.2 0.9 0.2 0 1 0.7 1.8 1.5 1.8 0.8 0 1.5 0.6 1.5 1.2 0 0.7 0.3 1 0.7 0.6 0.4-0.4 1.2-0.1 1.8 0.8 0.9 1.4 1.3 1.4 3.2 0.3 1.2-0.8 2.5-2.3 2.7-3.4 0.3-1.1 0.5-2.2 0.5-2.5 0-0.3 0.5-0.8 1.3-1.2 0.7-0.4 1.4-1.3 1.4-2 0.1-0.7 0.2-2 0.3-2.8 0.1-1.2 0.5-1 1.6 0.5 1.2 1.6 1.2 2.1 0.3 2.6-1 0.5-1 0.8 0 1.3 0.8 0.4 1.5-0.7 2.2-3.2 0.5-2 0.7-3.9 0.4-4.2-0.2-0.3-0.4 0.1-0.4 0.7 0 0.7-0.4 1.3-1 1.3-0.6 0-0.5-0.8 0.3-1.9 0.6-1.1 1.6-1.7 2.2-1.3 0.6 0.3 1.6 0.8 2.3 0.9 0.7 0.2 0.9-0.2 0.5-0.9-0.6-0.9-0.2-1 1.5-0.5 1.2 0.4 2.4 0.3 2.7-0.3 0.3-0.6 2.6-0.9 5.1-0.8 2.5 0.2 4.7 0.1 4.9-0.2 0.2-0.3 1.4-0.5 2.7-0.4 1.2 0.1 2.7-0.4 3.1-1 0.6-0.8 1-0.6 1.4 0.4 0.4 1.1 1.2 0.3 2.9-2.5 1.3-2.2 2.5-4 2.6-3.9 0.2 0 1.3 0.6 2.5 1.2 1.3 0.7 2.1 1.6 1.8 2.2-0.3 0.6 0.2 0.8 1 0.5 0.8-0.3 1.5-0.9 1.5-1.5 0-0.6 0.7-0.8 1.5-0.5 0.8 0.3 2.2-0.3 3.1-1.3 1.4-1.5 1.7-1.5 2.4-0.2 0.7 1.2 1.1 1 1.8-1 0.7-2.1 1-2.2 1.5-0.8 0.4 1 1.3 1.8 1.9 1.8q1.3 0-0.2-0.9c-1.1-0.6-1.2-1-0.3-1.5 0.7-0.3 1.9-0.3 2.5 0.1q1.3 0.8 0.5-0.5c-0.4-0.6-1.5-1.2-2.5-1.2-1.6-0.1-1.6-0.1 0-1 1.2-0.7 1.6-1.7 0.7-5.5l1.6 2.2c0.8 1.3 2.2 2.1 3 1.8 0.8-0.3 1.3-0.9 1-1.5-0.3-0.6 0.8-0.8 2.7-0.6 1.8 0.2 3.4 0.9 3.5 1.5 0.2 0.6 1.2 0.9 2.3 0.6 1.6-0.4 2 0 2 2 0 1.4 0.3 2.3 0.7 2.1 0.5-0.2 1.4-1.7 2-3.5 0.8-1.7 0.9-2.9 0.3-2.6-0.6 0.3-1.2-0.1-1.4-0.8-0.3-0.9-0.7-0.8-1.5 0.3q-1.1 1.5-1.1 0.2c0-0.6-0.6-1-1.3-0.9-0.9 0.3-1-0.2 0.8-4.2l0.7 2.2c0.6 2 0.6 2.1 0.8 0.2 0.1-1.1 0.2-2.3 0.1-2.8 0-0.4 1-1.9 2.4-3.5 1.4-1.5 2.2-3.1 1.9-3.7-0.3-0.6 0.4 0.1 3.7 4l-0.1-3.3c0-1.7 0.4-3.4 1-3.7 0.6-0.3 1-0.9 1-1.5 0-0.6-0.6-1-1.3-1-0.7 0-1.2-1.3-1.2-3 0-2.7 0.3-2.9 2.8-2.5 2 0.4 2.5 0.2 1.9-0.7q-0.7-1.3 0.6-0.5c0.6 0.4 1 1.6 0.7 2.7-0.3 1.1-0.1 1.8 0.5 1.5 0.6-0.3 1.1 0 1.3 0.6 0.1 0.5 1 0.8 2 0.5 0.9-0.3 1.5-1 1.2-1.6-0.3-0.6-0.1-1 0.5-1 0.6 0 1-0.9 1-2 0-1.1 0.4-2 1-2 0.6 0 1.2-0.8 1.5-1.8 0.3-0.9 0.3-2.4 0.1-3.2-0.3-0.8-1.4-1.8-2.6-2.3-1.1-0.4-2-0.4-2 0 0 0.5-1.1 0.9-2.5 1-1.4 0.2-3.1-0.3-3.9-1-0.9-0.8-1.1-2-0.5-4.2 0.7-2.3 0.4-3.9-1.2-7-1.3-2.3-2.1-5.7-2-8 0.1-2.2 0.2-5.7 0.4-7.8 0.1-2.2 0.7-3.7 1.4-3.7 0.7 0 1.3-0.9 1.3-2 0-1.1 0.4-1.8 1-1.5 0.6 0.3 1.1-0.6 1.3-2 0.1-1.3-0.1-2.5-0.5-2.5-0.5 0-0.8-0.4-0.8-1 0-0.6 0.6-0.7 1.3-0.4 0.6 0.3 0.5 0-0.3-0.8-0.9-0.7-1.5-2.8-1.5-4.8 0.1-1.9-0.2-4.1-0.7-4.8-0.4-0.6-0.5-1.8-0.1-2.5 0.4-0.6 0.9-1.9 1-2.7 0.2-0.8 1.1-2 2.1-2.7 0.9-0.7 2.1-1.2 2.7-1.3 0.6 0 0.3 0.5-0.5 1-0.8 0.5-1.2 1-0.8 1 0.5 0 2.4-1.1 4.3-2.5 1.9-1.4 3.3-2.9 3-3.5-0.3-0.6 0.4-1.2 1.5-1.5 1.1-0.3 2.6-1.9 3.3-3.5 0.6-1.7 1.5-3 2-3 0.4 0 2.2-1.4 4-3.1 3-2.9 3.2-3.4 3-9.5-0.2-3.5-0.7-7.2-1.2-8.2-0.5-0.9-2.7-2.6-5-3.7-3.2-1.5-4.2-2.6-4.3-4.5 0-1.4-0.2-3.2-0.3-4-0.1-0.8-0.3-2.6-0.4-4-0.2-1.4-0.4-1.9-0.7-1.3-0.3 1-0.9 0.9-2.2-0.4-0.9-0.9-1.7-2-1.7-2.4 0-0.4-0.4-1.1-0.9-1.6-0.5-0.4-0.6-0.3-0.3 0.4 0.4 0.7 0.3 1.5-0.3 1.8-0.6 0.3-1.2-0.2-1.5-1-0.3-0.8-0.5-2.3-0.5-3.3-0.1-0.9 1.9-4.2 4.4-7.2 2.5-3 4.6-5.9 4.6-6.5 0-0.6 1.7-1.8 3.8-2.8 2-1 4.3-2.6 5-3.7 0.6-1.1 1.3-4 1.5-6.4 0.1-2.7-0.3-4.9-1.3-6-0.8-0.9-1.8-1.7-2.3-1.6-0.4 0-0.5 0.7-0.2 1.5 0.3 0.8 0.1 1.5-0.5 1.5-0.6 0-1.2-0.7-1.5-1.5-0.3-0.8-1.4-1.5-2.5-1.5-1.1 0-2.7-0.2-3.5-0.5-0.9-0.3-1.5-1.8-1.5-3.8 0-1.7-0.5-3.9-1-4.7-0.8-1.2-3.7-1.5-16.7-1.5-8.7 0-17.4 0.3-19.3 0.5-1.9 0.2-3.8 0.9-4.2 1.5q-0.8 1-0.8-0.3c0-0.8-2.2-1.4-6.3-1.8-3.4-0.3-8.9-0.7-12.2-1-3.3-0.2-11.4-0.4-18-0.4-6.6 0-13.5 0.2-15.3 0.5-3 0.5-3.2 0.7-2.8 3.7 0.2 1.8 0.1 3.7-0.2 4.3-0.4 0.6-0.7 1.4-0.9 2-0.1 0.6-0.5 2.8-0.9 5-0.4 2.2-1 4.2-1.4 4.5-0.3 0.3-1.9 3.5-3.6 7.2-2.6 6.1-3.2 6.8-6.4 7.3-1.9 0.4-5.5 1.9-8 3.4-2.5 1.5-6 3.1-7.8 3.4-2.8 0.6-3.4 0.4-4.6-2.1-0.8-1.5-1.6-4.5-1.8-6.7-0.2-2.2-1.1-4.8-2.1-5.8-0.9-0.9-2.1-1.5-2.7-1.2-0.6 0.3-1.3 2.2-1.6 4.2-0.3 2.1-1.7 5-3 6.5-1.7 2-2.8 2.5-3.6 1.8-0.7-0.5-1.6-0.7-2-0.2-0.4 0.4-1-0.1-1.3-1.1-0.4-1.3-1.4-1.7-4.3-1.5-2 0.1-4.7-0.2-6-0.5-1.2-0.4-2.2-1-2.2-1.5 0.1-0.4-1.3-1.4-3-2.2-1.7-0.8-3.1-1.7-3-2 0-0.3-2.3-1.2-5.1-2-2.8-0.8-5.3-1.8-5.5-2.3-0.2-0.4-2.2-0.7-4.4-0.7-2.2 0-4.2 0.4-4.5 1-0.3 0.6-1.8 1-3.5 1-1.7 0-4.1 0.4-5.5 1-1.8 0.7-2.6 2-3 4.5-0.3 1.9-0.9 3.5-1.5 3.5-0.6 0-1 1.2-1 2.7 0 1.6-0.6 3.6-1.3 4.5-0.7 1-1.5 1.4-2 1-0.4-0.4-0.7 0-0.7 0.8 0 1-1 1.5-2.8 1.5-1.6 0-3.6-0.8-4.5-1.8-0.9-0.9-2.7-1.9-3.9-2.2-1.3-0.3-3-1.6-3.8-3-0.8-1.4-1.7-2.3-2-2-0.3 0.3-1.6-1.2-3-3.3-2-3.1-2.4-4.9-2.5-11.4 0-4.9 0.5-8.2 1.3-9 0.7-0.7 1.2-2.6 1.2-4.3 0.1-1.7-0.7-3.8-1.7-4.8-1.2-1.2-3.5-1.8-6.8-2-3.6-0.1-5.8 0.4-8 2-2.1 1.4-4.1 4.7-6.5 10.3-1.9 4.5-4.2 8.7-5 9.4-0.8 0.7-2.3 1.6-3.3 1.9-1 0.4-2.3 0.1-3.2-0.8-0.8-0.8-2.3-1.5-3.3-1.5-0.9 0-3.2 1.2-5 2.5-2.6 2-3 2.8-2 3.9 0.7 0.7 2 1.1 2.8 0.8 1.3-0.4 1.3-0.6 0-1.3-1.2-0.7-1-0.9 0.7-0.9 1.3 0 2.6 0 3 0.1 0.5 0 1.1-0.5 1.4-1.3 0.5-1 1.3-0.9 3.7 0.7 2.7 1.8 2.9 2.3 2 5-0.6 1.7-1.7 4.3-2.4 6-0.8 1.7-2.6 4.4-4.2 6-1.5 1.7-4.7 4-7.2 5.1-4.2 2-4.7 2-7.2 0.5-1.6-0.9-2.8-2-2.7-2.6 0-0.6-0.7-1.7-1.6-2.5-0.9-0.8-1.5-2.2-1.5-3 0-0.8-0.7-2.2-1.6-3-1.2-1.1-1.5-2.5-1.1-5 0.3-2.1 0.1-4-0.6-4.8-0.7-0.7-2.9-1.2-5-1.2-2.2 0-4.5 0.7-5.5 1.7-0.9 0.9-1.6 1.8-1.4 2 0.1 0.2 0.2 1.1 0.2 2 0 1-0.6 2.7-1.4 3.8-1 1.4-1.8 1.7-2.6 1-0.9-0.8-0.9-1.6 0.1-3.5 0.7-1.4 1.9-3.2 2.7-4 0.8-0.9 1.3-3.1 1.1-5.5-0.1-2.2 0.1-5.1 0.6-6.5 0.5-1.4 2.8-4.4 5.3-6.8 2.5-2.3 5.3-4.2 6.3-4.2 1.1 0 2.1-0.4 2.4-1 0.3-0.6 2.5-1 5-1 2.5 0 5.2-0.2 6-0.5 0.8-0.3 1.5-1.3 1.5-2.3 0-0.9 1.1-2.8 2.5-4.2 1.4-1.4 2.6-3.6 2.6-5q0-2.5-2.7-4c-1.5-0.8-3.4-1.5-4.3-1.5-0.9 0-2.5 1.6-3.6 3.5-1.5 2.5-2.9 3.6-4.8 3.7-1.8 0.2-2.7-0.2-2.7-1.2 0-0.8-0.9-1.7-2-2-1.1-0.3-2.3-1.3-2.6-2.3-0.3-0.9-1.1-3-1.7-4.5-1-2.4-1.8-2.8-5.2-2.8-2.2 0.1-7.6 1-12 2.1-4.7 1.1-8.5 2.7-9.3 3.7-0.7 1-1.2 2.4-1.2 3 0 0.7-0.4 1.3-1 1.3-0.5 0-1.3 2.6-1.6 5.7-0.4 3.2-1.3 6.7-2.1 7.8-1 1.6-1.2 4.8-0.7 15 0.5 10.6 1.1 14.7 3.6 22.5 1.7 5.2 4.2 11.5 5.6 14 1.5 2.5 3.1 5.1 3.7 5.8 0.5 0.7 1.7 2 2.5 2.9 0.9 1 1.5 3.4 1.4 6.2-0.1 2.5-0.9 6-1.8 7.6-0.9 1.6-1.6 3.6-1.6 4.2 0 0.7-0.7 2.4-1.5 3.8-0.8 1.4-1.9 2.5-2.5 2.5-0.5 0-1.7-0.7-2.5-1.5-0.8-0.8-1.5-1.9-1.5-2.5 0-0.6-0.4-1-1-1-0.5 0-1.2-0.8-1.5-1.8-0.2-0.9-1.7-4-3.2-6.7-1.6-2.8-3.5-7-4.3-9.5-0.7-2.5-1.7-4.9-2-5.5-0.4-0.6-1.2-4.9-1.9-9.8-0.6-4.8-1.5-9.5-2-10.5-0.5-0.9-1.4-4.4-2-7.7-0.6-3.4-0.8-8.4-0.4-11.5 0.4-3 0.6-7.1 0.5-9-0.1-1.9-1.3-5.2-2.7-7.3-1.9-2.8-2.5-5-2.5-9.2 0-4.7 0.4-5.8 2.5-7.5 1.4-1.1 2.5-2.3 2.5-2.8 0-0.4 1.2-1.7 2.5-3 1.4-1.2 2.5-2.9 2.5-3.7 0-0.8 0.7-1.7 1.5-2 0.8-0.3 1.5-1.1 1.5-1.8-0.1-0.6 0.7-2 1.7-2.9 1.6-1.5 2-1.5 3.8-0.2 1.7 1.2 1.8 1.7 0.8 3.4-0.7 1.1-1.3 2.7-1.3 3.5 0 1.1 0.9 1.4 3.8 1.1 2-0.2 8.2-1.1 13.7-2 5.5-0.9 13.4-2.2 17.5-2.9 6.7-1.1 7.5-1.5 7.5-3.5 0-1.2 1-2.8 2.3-3.7 1.4-1 4.2-1.4 8-1.4 3.1 0.1 8 1.1 10.7 2.1 2.8 1 5.6 2.7 6.3 3.6 0.6 0.9 2 3.3 2.9 5.2 1 1.9 2.4 4.1 3.3 4.9 1.1 1.1 2.8 1.3 6.5 0.7 2.8-0.4 7.6-1 10.8-1.4 3.3-0.4 6.2-1.3 6.8-2.2 0.5-0.8 1.9-3.2 2.9-5.3 1.1-2.1 3.2-4.2 4.8-4.8 1.5-0.5 3.4-1.1 4.2-1.3 0.8-0.2 2.2-0.6 3-1 0.8-0.3 3.5-1.3 6-2.1 2.9-0.9 7-1.3 11.5-1zm10 17.6c-2.2 1.6-4.8 2.9-5.8 2.9-1 0-2.9 1.2-4.3 2.7-1.3 1.6-2.4 3-2.4 3.3 0 0.3 1.5 1.2 3.2 2 2.5 1.2 3.5 2.4 4.3 5.7 0.5 2.3 1.4 4.5 1.8 5 0.5 0.4 4.3 1.1 8.5 1.4 4.3 0.4 10.2 1.2 13.2 1.9 3 0.7 6.7 1 8.3 0.6 2-0.4 2.8-1.3 3.2-3.6 0.3-1.8 1.1-3 2-3 0.8 0 2.3 1 3.3 2.2 0.9 1.1 2.3 1.8 3 1.5 0.6-0.4 1.2-1.7 1.2-3 0-1.2-1.1-3.3-2.5-4.7-1.5-1.4-4.1-4.7-5.8-7.4-1.8-2.6-4.8-5.8-6.7-6.9-1.9-1.2-3.7-2.4-4-2.9-0.3-0.4-3.2-1-6.5-1.2-3.3-0.3-6.9-0.2-8 0.1-1.1 0.3-3.8 1.8-6 3.4zm52.5 26.4c0.5 0.6 1.2 0.3 1.8-1 0.7-1.4 0.6-2.6-0.3-4-1.3-1.9-1.4-1.9-1.8 1-0.3 1.7-0.2 3.4 0.3 4zm169.3 52c0.9-0.3 1.7-0.1 1.7 0.5 0 0.6-0.4 1-1 1-0.6 0-1 1.1-1 2.5 0 1.4-0.4 2.3-1 2-0.6-0.3-0.7-1.1-0.3-1.8q0.8-1.2-0.5-0.5c-0.6 0.5-1 1.2-0.7 1.8 0.3 0.6-0.3 1.4-1.3 1.9-1.5 0.8-1.5 1 0.5 2 1.9 0.9 2.4 0.8 2.8-0.4 0.3-0.8 0.9-1.5 1.5-1.5 0.6 0 0.8 0.9 0.5 2-0.3 1.1 0.1 2.2 0.7 2.4 1 0.4 1 0.5 0 0.5-0.6 0.1-1 0.5-0.7 1.1 0.3 0.6 1.2 0.7 2.2 0.2 1.4-0.6 1.5-0.1 1 3.8-0.4 2.5-0.8 5.9-1 7.5-0.2 1.6-0.7 4.6-1.2 6.5-0.4 1.9-1.5 4.2-2.3 5-0.8 0.8-2.6 3-3.9 4.7-1.2 1.8-2.1 4-1.8 4.8 0.4 1.2 1.4 1 5.5-1.3 4.1-2.2 5.3-3.6 6.9-7.7 1.1-2.8 2.4-7.5 2.8-10.5 0.4-3 0.6-7.1 0.5-9-0.1-1.9-0.4-5.3-0.8-7.5-0.4-2.2-1.3-4.6-2-5.3-0.8-0.6-1.8-1.1-2.3-1-0.5 0.2-1-0.1-1.1-0.7-0.1-0.6-0.6-1.8-1.1-2.8-0.5-0.9-1.3-1.7-1.9-1.7-0.5 0-1.2 0.4-1.6 1-0.5 0.6-0.1 0.8 0.9 0.5zm-155.3-254.3c4.7 0 9.6 0.4 11 0.8 1.8 0.6 0.5 0.8-4.5 0.8-3.8 0.1-8.8-0.3-11-0.7-3.3-0.7-2.6-0.9 4.5-0.9zm34.8 2.9c1.7-0.1 8 1.2 14 2.9 5.9 1.6 11.6 3.4 12.7 4 1.1 0.5 4.8 1.8 8.3 3 3.4 1.1 6.8 2 7.5 2 0.6 0 5 1.9 9.7 4.4 4.7 2.4 8.6 4.9 8.8 5.5 0.1 0.6-0.8 1.4-2 1.7-1.5 0.3-3-0.1-4.3-1.3-1.1-1.1-3.2-2.7-4.7-3.6-1.6-0.9-5.2-2-8-2.3-2.9-0.4-7.3-1.6-9.8-2.8-2.5-1.1-4.7-2.4-5-2.7-0.3-0.3-3-1.2-6-1.9-3-0.7-6.2-1.6-7-2.1-0.8-0.4-3.4-1.3-5.8-2.1-2.3-0.7-4.5-1.9-4.7-2.5-0.3-0.7-0.9-1.1-1.5-0.8-0.6 0.3-2 0.1-3.2-0.4-2.1-0.9-2-1 1-1zm-127.5 4c3.5-0.1 3.6 0 2 1.7-1 0.9-4.3 2.9-7.3 4.3-3 1.4-7.1 3.1-9 3.8-1.9 0.6-6 0.9-9.2 0.6-5.4-0.5-6-0.3-8.8 2.5-1.6 1.7-3 3.3-3 3.8 0 0.4-1.1 2.1-2.5 3.7-1.4 1.7-2.5 3.6-2.5 4.3 0 0.6-2.6 3.9-5.7 7.2-3.2 3.3-7.2 6.4-9 7-1.8 0.5-3.3 0.8-3.3 0.5 0-0.3 1.5-2.2 3.3-4.2 1.8-2.1 5.3-6.9 7.7-10.8 2.5-3.8 7.2-9.7 10.5-13 5.2-5.3 6.6-6.2 11-6.8 2.8-0.4 6.1-1.2 7.5-1.8 1.4-0.5 5.2-1.3 8.5-1.8 3.3-0.5 7.7-0.9 9.8-1zm199.7 22.9c0.6 0 1.2 0.6 1.5 1.3 0.2 0.6 2.4 2.1 4.7 3.2 4.1 1.8 4.2 1.9 1.6 2.2-1.6 0.2-4.1-0.6-5.8-1.7-1.6-1.1-3-2.7-3-3.5 0-0.8 0.5-1.5 1-1.5zm53.4 33.4c1.7 1.1 4 3 5.1 4.2 1.1 1.1 3.2 3.6 4.7 5.5 1.4 1.9 5.1 6 8.2 9.2 3.1 3.1 5.6 5.9 5.6 6.2 0 0.3-0.7 0.5-1.5 0.5-0.8 0-1.5-0.3-1.5-0.7 0-0.5-1.2-1.4-2.8-2.1-1.5-0.7-3.3-1.2-3.9-1.2-0.7 0-3-1.6-5-3.5-2.1-2-4.1-3.6-4.5-3.5-0.5 0-0.8-0.6-0.8-1.2 0-0.7-2.5-3.1-5.5-5.3-3.1-2.2-5.5-4.3-5.5-4.7 0-0.5-0.1-1.4-0.3-2-0.1-0.7 0.8-1.8 2.1-2.4 2.1-1 3-0.8 5.6 1zm-321.7 1.1c0.2 0.2 0.1 2-0.2 4-0.3 1.9-1.6 4.9-3 6.5-1.4 1.7-2.9 3-3.5 3-0.5 0 0.7-3.1 2.7-7 2-3.8 3.8-6.8 4-6.5zm346.9 47.5c1 0 1.4 1.3 1.4 4.3 0 2.3 0.3 5.8 1.3 11.2l-1.9-2.5c-1-1.4-2.7-4-3.6-5.7-1.7-3.1-1.7-3.4-0.2-5.3 1-1.1 2.3-2 3-2zm-367.6 5.5c0.5 1.3 0.3 3.5-0.5 6-0.8 2.2-1.4 4.7-1.4 5.5-0.1 0.8-0.7 2.4-1.5 3.5-0.8 1.1-1.8 1.7-2.3 1.3-0.4-0.5-0.1-1.6 0.9-2.5 0.9-1 2.1-3.6 2.7-5.8 0.6-2.2 1.1-5.3 1.2-7 0-2.6 0.1-2.7 0.9-1zm378.4 72.8c0.6 0.2 1.2 1.4 1.4 2.8 0.2 1.3 0.1 3.4-0.2 4.7-0.3 1.2-1.3 2.2-2.1 2.2-1.1 0-1.5-1.2-1.7-4.3-0.1-2.4 0.2-4.7 0.7-5.1 0.5-0.3 1.3-0.5 1.9-0.3zm-293.5 54.7c0.9 0.4 2.4 0.6 3.4 0.4 0.9-0.2 2.3 0.3 3 1.1 0.6 0.9 0.9 1.6 0.5 1.5-0.5 0 0.3 1.1 1.7 2.5 1.4 1.4 2.2 3.1 1.8 3.8-0.3 0.6-0.2 0.9 0.3 0.4 0.5-0.4 1.9 0.3 3.1 1.5 1.2 1.3 1.9 2.7 1.5 3.3-0.4 0.5-0.3 0.7 0.3 0.3 0.6-0.4 2.6 0.6 4.5 2.3 1.9 1.7 3.5 3.4 3.5 3.8 0 0.4 1.6 2.4 3.5 4.5 1.9 2.1 5.5 6 8 8.6 2.7 3 4.2 5.4 3.8 6.2-0.4 0.8-1.2 1-2.2 0.6-0.9-0.5-3.1-0.2-4.8 0.6-2.8 1.1-3.8 2.5-6.2 8.7-2.1 5.7-4 8.6-8 12.4-3.8 3.6-6 5-8.6 5.2-1.9 0.2-5.7 0.2-8.5 0.2-2.7-0.1-5.9-0.2-7-0.2-1.1-0.1-4.5 0.3-7.5 0.7-3 0.4-5.9 1-6.5 1.3-0.5 0.4-2.6 0.7-4.7 0.7-2 0.1-3.5-0.1-3.5-0.4 0.1-0.3-0.5-1.4-1.3-2.4-0.8-1-3.3-3.8-5.5-6.2-2.2-2.3-5.8-6.2-8.1-8.6-2.2-2.4-5.8-5.1-8-6.1-2.1-1-4.3-1.7-4.9-1.4-0.5 0.2-1-0.4-1-1.4 0-1.1 0.3-1.9 0.8-1.9 0.4 0 2.2-1.1 4-2.5 1.7-1.4 4.3-2.6 5.7-2.8 1.4-0.1 4.8-1.1 7.5-2.2 2.8-1.1 5.6-2.5 6.3-3.2 0.7-0.7 1.9-1.3 2.5-1.3 0.7 0 3.7-1.2 6.7-2.6 3-1.5 6.6-2.6 8-2.6 1.4 0 6 1.2 10.3 2.6 4.2 1.4 9.3 2.6 11.2 2.6 1.9 0 4.6-0.6 6-1.2 1.5-0.8 2.6-2.4 2.9-4.3 0.2-1.6 0.1-4.3-0.2-5.9q-0.7-3-5.7-6.6c-2.7-2-6-4.2-7.2-4.8-1.3-0.7-3.2-1.2-4.3-1.2-1.1 0-2-0.4-2-1 0-0.5-1.1-1-2.5-1-1.4 0-2.5-0.5-2.4-1 0-0.6 0.5-1.2 1.2-1.4 0.7-0.2 2.5-0.8 4.1-1.3 1.7-0.5 3.7-0.6 4.5-0.3zm-63.3 48c1.3 0 2.4 0.3 2.4 0.8 0 0.4-0.4 1.4-0.9 2.2-0.5 0.8-1.3 1.2-1.7 0.9-0.5-0.4-1.1 4.1-1.2 10-0.2 6.1-1 12.1-1.8 14.1-0.8 1.9-1.6 5.3-1.9 7.5-0.2 2.2-0.7 5-1 6.3-0.3 1.2 0 2.5 0.8 2.8 0.9 0.5 0.8 0.8-0.3 1.4-0.9 0.5-3.3-0.2-6.3-1.9-2.6-1.4-4.8-3-4.7-3.6 0-0.5-0.9-1.8-2-2.7-1.1-1-2-2.7-2-3.8 0-1.1-0.4-1.8-1-1.5-0.5 0.3-1.2-0.7-1.5-2.2-0.3-1.6-0.6-4.4-0.7-6.3 0-1.9 0.4-3.6 1.1-3.7 0.6-0.2 1.1-0.9 1.1-1.5 0-0.7 1.7-2.8 3.8-4.5 2-1.8 4-3.3 4.5-3.3 0.4 0 0.5-0.4 0.2-1-0.3-0.5 0-1 0.6-1 0.6 0 3.1-2 5.6-4.5 2.8-2.8 5.4-4.5 6.9-4.5zm98.4 37.8c1.4 0.3 3.6 0.8 5 1.2 1.6 0.4 2.6 1.4 2.8 2.8 0.1 1.5 1.9 3.2 5.5 5.2 2.8 1.6 6 3.5 7 4.2 0.9 0.7 1.7 2.3 1.7 3.6 0 1.2-0.4 2.2-1 2.2-0.5 0-1 0.7-1 1.5 0 0.8-0.8 1.8-1.7 2.2-1 0.4-2.5 1.5-3.3 2.3-1.3 1.4-4.1 1.5-19 1.3-9.6-0.2-19.1-0.8-21-1.4-1.9-0.5-8.2-1.2-14-1.6-6.9-0.4-11.7-0.2-14 0.6-2.7 0.9-4.8 0.9-9.5-0.2-3.3-0.7-7.8-1.2-10-1-2.2 0.1-5.6 1-7.5 1.9-1.9 0.9-5.3 1.7-7.4 1.8-2.7 0.1-4.1-0.4-4.5-1.4-0.3-0.8-1.1-1.9-1.7-2.5-0.6-0.5-2-2.6-3.2-4.5-1.1-1.9-1.7-4.1-1.4-4.8 0.5-0.8 2-1 4.7-0.6 2.6 0.3 5.8 0 9-1.1 2.8-1 6.1-2 7.5-2.3 1.4-0.2 3.2-0.5 4-0.5 0.8 0 3.5 0.6 6 1.3 4.3 1.2 5 1.1 13.1-2 8.6-3.4 8.6-3.4 15.5-2 3.8 0.8 9.3 1.5 12.2 1.7 4.1 0.2 5.2 0 5.2-1.2 0-0.8 0.6-1.4 1.3-1.3 0.6 0.2 3-0.8 5.2-2.2 2.2-1.3 5.8-2.7 8-3.1 2.2-0.3 5.1-0.4 6.5-0.1zm-117.8 31.7l1.5 3.5c0.8 1.9 1.6 4.8 1.7 6.3 0 1.5 0.6 3.1 1.1 3.5 0.6 0.4 1.7 2 2.5 3.6 0.8 1.6 2.4 3.5 3.5 4.2 1.1 0.7 3.2 1.1 4.8 0.8q2.7-0.4 2-1.6c-0.3-0.7 0.3-0.4 1.5 0.7 1.2 1.1 1.9 2.3 1.7 2.8-0.3 0.4 0.3 1.1 1.3 1.7 0.9 0.5 1.1 1 0.5 1-1 0-1.1 0.9-0.4 3.8 0.5 2 1.2 5.1 1.5 6.7 0.3 1.6 0.8 4.6 1.2 6.5 0.3 1.9 0.1 5.1-0.4 7-0.6 1.9-0.7 4-0.3 4.5 0.5 0.6 1.8 4.4 3.1 8.5 2.3 7.4 2.3 7.5 0.5 13.5-1 3.3-2.4 6.5-3.1 7-0.7 0.6-1.3 1.6-1.4 2.3 0 0.6-0.3 1.2-0.7 1.2-0.5 0-1.4 1.2-2 2.7-0.7 1.6-2.1 5.5-3.2 8.8-1 3.3-2.2 8-2.6 10.5-0.4 2.5-1.4 6.1-2.3 8-0.9 1.9-2.8 4.4-4.1 5.5-1.4 1.1-3.5 2.5-4.6 3.1-1.1 0.5-5.1 2.2-9 3.7-3.8 1.5-9.1 2.9-11.7 3.2-4.1 0.4-4.8 0.2-4.9-1.2-0.1-1 0-2.9 0.1-4.3 0.1-1.4 1.1-4.5 2.2-7 1.1-2.5 2.4-5.4 2.8-6.5 0.5-1.1 2-5.1 3.5-9 1.4-3.9 3.7-9.5 5.2-12.5 1.4-3 3.7-7 5.2-8.9 1.4-1.8 3.5-3.8 4.6-4.4 2-1 2-1 0.3 1.6-1 1.5-1.8 3.4-1.8 4.2 0 0.8 0.2 1.5 0.5 1.5 0.3 0 2.5-1.9 4.9-4.2 2.4-2.4 4.5-5.4 4.7-6.8 0.3-2 0-2.5-1.6-2.5-1.9 0-2-0.3-1-3.2 0.5-1.7 1.6-3.7 2.3-4.5 0.7-0.7 1.2-2 1.2-2.8 0-0.8 0.5-2.1 1.2-2.8 0.8-0.8 1.3-4 1.3-8.5 0-6.8-0.2-7.6-3.7-12.2-2.1-2.9-3.7-6.2-3.8-7.7 0-1.6-0.9-6.7-2-11.5-1.1-4.9-2.5-9.6-3-10.5-0.6-1-1-3.5-0.9-5.5zm84 8c2.9 0.1 5.8 0.4 6.3 0.7 0.6 0.3 2.4 0.5 4 0.4 1.7-0.1 3.7-0.6 4.5-1.1 1.2-0.7 1.3-0.6 0.3 0.6-0.6 0.7-0.9 1.8-0.7 2.4 0.3 0.5-0.6 1.3-2 1.7-1.4 0.4-5.4 0.7-8.8 0.7-3.5-0.1-7.6 0.4-9.3 1-1.6 0.7-3.1 1-3.2 0.9-0.1-0.2-0.9 0.4-1.7 1.4-0.9 0.9-4.8 2.3-8.8 3.1-4 0.8-7.8 1.2-8.5 1-0.7-0.2-1.3 0.1-1.3 0.7 0 0.5-0.7 0.7-1.5 0.5-0.8-0.3-1.5-0.2-1.5 0.2 0 0.4-1.6 0.9-3.5 1-1.9 0.1-3.5-0.2-3.5-0.7 0-0.6-0.4-0.8-1-0.5-0.5 0.2-1-0.2-1-1 0-0.9-0.5-1.7-1.1-1.8-0.7-0.2-0.6-1.5 0.5-4 0.9-2.1 2.6-4.3 3.9-4.9 1.4-0.8 7.7-1.2 16.9-1.3 8.1-0.1 14.9-0.3 15.2-0.6 0.2-0.2 2.8-0.4 5.8-0.4zm167.6 12.5c0.1 0 0.2 0.8 0.2 2 0 1.2-0.7 2-1.7 2-1.3 0-1 0.5 1 1.5 1.5 0.8 2.5 1.9 2.2 2.5-0.3 0.5-1.2 1-2 1-0.9 0-1.2-0.6-0.8-1.3 0.4-0.7-0.3-0.4-3.6 2.8l0.2-3.8c0.2-3 0.6-3.8 2.2-3.8 1.4-0.1 1.6-0.3 0.5-0.6-1.3-0.5-1.3-0.7 0-1.4 0.8-0.5 1.6-0.9 1.8-0.9z"/>
</svg>