<svg version="1.2" xmlns="http://www.w3.org/2000/svg" viewBox="0 0 843 843" width="843" height="843">
	<title>image-svg</title>
	<style>
		.s0 { fill: #181818 } 
	</style>
	<path id="Path 0" fill-rule="evenodd" class="s0" d="m512.6 187c-0.4 1.1-0.4 2.3-0.2 2.8 0.3 0.4 0.1 3.6-0.5 7.2-0.5 3.6-1.1 6.7-1.4 7-0.3 0.3-1.6-0.8-2.8-2.3-1.6-2.1-2.9-2.8-4.7-2.5-1.6 0.2-3 1.4-3.9 3.3-0.8 1.7-1.7 5-1.9 7.5-0.3 2.5-0.1 4.8 0.4 5.2 0.5 0.3 0.6 2.8 0.2 5.5-0.4 2.6-0.7 7.2-0.7 10.1-0.1 2.8 0.3 6.3 0.9 7.7 0.8 1.9 0.6 2.9-0.5 4-0.8 0.8-1.5 3.1-1.5 5 0 1.9 0.2 4.2 0.5 5 0.3 0.8 1.2 1.5 2 1.5 0.8 0 1.8-1 2.1-2.3 0.6-2 0.8-1.9 3 1.8 1.3 2.2 3.1 6.3 4.1 9 0.9 2.8 2.4 5.6 3.5 6.3 1 0.6 1.8 1.6 1.8 2.2 0 0.6-0.9 1-2 1q-2 0-2.5-2.5c-0.3-1.4-1.1-2.5-1.8-2.5-0.6 0-1.8 0.4-2.6 0.8-1.1 0.6-1.1 1.4-0.1 4.7 0.7 2.2 1.8 4.3 2.4 4.7 0.6 0.3 2.5 0.4 4.1 0.1 2.4-0.4 4 0.3 8.5 3.8 3 2.4 8.1 5.3 11.2 6.6 3.2 1.3 6.8 2.3 8 2.3 1.3 0 3 0.4 3.8 0.9 1.3 0.8 1.3 1.2-0.2 3.2-0.9 1.3-1.4 3.1-1.2 3.9 0.2 0.8 1.5 2.1 2.9 2.8 1.4 0.6 3.5 1.2 4.7 1.2 1.3 0 4.1 0.6 6.3 1.3 2.2 0.8 4.6 1.2 5.2 1.1 1-0.3 1-1.1 0.3-2.9q-1-2.5 0-2.5c0.5 0 1.9 1.2 3 2.8 1.2 1.5 2 3.6 2 4.7-0.1 1.1 0.5 2.6 1.2 3.3 0.7 0.6 3.3 1.5 5.8 1.8 3.2 0.5 7.3 2.5 14 6.9 5.2 3.4 12 7.8 15 9.8 3 1.9 8 5.8 11 8.5 3 2.8 5.3 5.3 5 5.6-0.3 0.3-2.6-0.2-5.1-1.2-2.5-0.9-5.3-2.5-6.2-3.5-0.9-0.9-2.9-1.7-4.5-1.7-1.5 0.1-3.4-0.7-4.2-1.6-0.8-0.9-2.6-2.1-4-2.5-1.7-0.6-2.9-0.5-3.8 0.3-0.7 0.7-1.3 1.6-1.2 2 0 0.5 1.2 1.4 2.7 2 1.6 0.7 4.4 2.8 6.3 4.8 1.9 1.9 5.6 4.5 8.2 5.8 2.7 1.2 5.5 2.2 6.3 2.2 0.8 0 1.5 0.4 1.5 1 0 0.6-0.9 1-2 1-1.1 0-7.3-1.1-13.8-2.5-6.4-1.4-15.4-2.9-19.8-3.3-6.6-0.6-8.5-0.4-9.8 0.8-0.9 0.8-1.7 2.3-1.6 3.2 0 1.1-0.7 1.8-1.8 1.8-0.9 0.1-2.8-0.8-4.2-1.8-1.4-1-2.8-3-3.2-4.3-0.5-1.7-1.7-2.6-4-3.1-2.6-0.6-3.7-0.4-5.3 1.2-1.1 1.1-2.9 2-4 2-1.1 0.1-3.9-1.7-6.3-4-2.3-2.2-4.7-4-5.2-4-0.5 0-2.1 1.1-3.5 2.5-1.4 1.4-2.3 3.2-2 4.2 0.2 1 2.2 2.7 4.4 3.8 3.3 1.7 3.8 2.3 3.1 3.7-0.8 1.5-0.5 1.9 1.7 2.4 1.6 0.3 3.4 0.8 4 1 0.9 0.3 0.7 1-0.7 2.4-1.9 1.9-1.9 2.1-0.3 4.4 1 1.4 2.7 2.7 3.8 3 1.1 0.3 3 0.2 4.3-0.2 1.2-0.4 2.5-1.3 2.7-2 0.3-0.6-0.5-2.4-1.6-4-1.4-1.7-1.9-3.4-1.5-4.7 0.6-1.9 0.7-1.9 3.1 0.5 1.4 1.4 2.5 2.9 2.5 3.5 0 0.6 0.5 1.7 1 2.5 0.6 1 2.9 1.6 6.5 1.7 3.2 0.2 7.1 1.2 9.2 2.3 2.1 1.1 4.5 2 5.3 2 0.8 0.1 2.1-0.6 2.7-1.5 1-1.2 1-1.8 0-3-0.6-0.9-0.9-1.8-0.5-2 0.5-0.3 3.4 0.5 6.5 1.6 3.2 1.2 8.5 3.3 11.8 4.6 3.3 1.4 6.6 2.2 7.2 1.9 0.7-0.3 1.6-1.4 2-2.4 0.4-1.1-0.1-2.1-1.3-3-1-0.7-3.2-1.2-4.8-1.2-2.4 0-2.7-0.3-1.8-1.3 0.9-0.9 2.6-0.6 8.4 1.9 4 1.7 7.2 3.6 7 4.3-0.1 0.6 0.5 1.7 1.3 2.3 0.9 0.7 1.6 1 1.5 0.5 0-0.4 1 0 2.2 0.8 1.3 0.8 3 1.5 3.8 1.6 0.8 0 2.2-0.7 3-1.6 0.8-0.9 1.7-1.6 2-1.6 0.3 0 1.1 1.2 1.7 2.6 0.8 1.5 3.4 3.4 6.3 4.8 2.8 1.2 5 2.5 5 3 0 0.4-0.8 0.7-1.8 0.7-0.9-0.1-3.5 1.3-5.7 3-2.2 1.7-4.9 3-6 3-1.1 0-4-0.5-6.5-1.1-2.5-0.5-5.7-0.7-7.3-0.4-2.3 0.4-2.5 0.7-1.5 2.1 1.1 1.3 1 1.9-0.7 3.1-1.5 1.1-3.1 1.2-6 0.7-2.2-0.5-6.3-0.8-9-0.9-4.2 0-5.8 0.6-9.3 3.3-4 3-4.5 3.2-9.5 2.4-2.8-0.4-6-0.6-7-0.5-0.9 0.2-1.7 1.1-1.7 2.1-0.1 0.9 0.6 2.4 1.5 3.2 0.9 0.8 1.6 2.3 1.5 3.3 0 0.9 0.6 1.8 1.2 1.8 0.7 0.1 1.8 0 2.3-0.1 0.5-0.1 3.7-0.6 7-1.2 3.3-0.5 8.2-1.9 10.8-3.1 2.6-1.2 5-2.8 5.2-3.4 0.3-0.8 2.6 1.1 5.6 4.5 4.4 4.9 5.9 5.9 11.2 7.4 3.8 1.1 7.3 2.8 9 4.5 1.5 1.5 3.4 4.8 4.2 7.3 0.9 2.9 3.9 7.4 8.5 12.5 3.9 4.4 8.3 10.5 9.9 13.5 1.7 3 3.8 9.6 4.9 14.5 1.1 4.9 2.7 10.8 3.6 13 1.2 3 1.6 7.3 1.6 17 0 8.6-0.4 14.4-1.4 17-0.7 2.2-2.2 8.3-3.1 13.5-1 5.2-2.9 12.2-4.3 15.5-2.3 5.3-2.6 7.6-2.8 19-0.1 7.1-0.7 17-1.3 22-1.1 8.8-1.1 9.1 1.5 14 1.4 2.8 3.7 6.1 4.9 7.5 1.7 1.8 2.6 4.5 3.4 10 0.6 4.1 2 10.6 3.1 14.5 1.1 3.9 2 8.4 2 10 0 1.6-0.7 5-1.5 7.5-0.8 2.5-1.5 6-1.5 7.8 0 1.7 1.1 5.1 2.4 7.5 1.4 2.3 2.9 7.1 3.5 10.7 0.7 4.5 0.7 8.8 0 14-0.6 4.1-1.9 10.4-2.9 14-1 3.6-2.7 8.8-3.8 11.5-1.1 2.8-3.9 8.8-6.2 13.5-2.3 4.7-7 12.5-10.4 17.5-3.5 5.3-10.9 13.7-17.6 20.4-6.3 6.2-20.3 19.3-31 29-10.7 9.7-24.2 21.7-30 26.7-5.8 5-15.9 14.3-22.5 20.5-6.6 6.3-17.4 16.1-23.9 21.9-6.5 5.8-16.9 14.7-23 19.8-6.1 5.2-11.6 10.1-12.2 11-0.6 1-2.4 2.2-4 2.9-1.6 0.6-5.8 1.4-9.4 1.7-3.6 0.3-14.8 2.1-25 4.1-12.9 2.6-20.3 3.6-24.5 3.3-3.4-0.2-7.9-1.3-10.5-2.6-2.5-1.2-9.9-6.3-16.5-11.4-6.6-5.1-15.6-12.8-20-17.3-4.4-4.4-10.1-11.2-12.7-15-3-4.4-6.4-11.5-9.1-19-2.4-6.6-4.7-13.5-5.1-15.2-0.3-2-0.2-3.3 0.4-3.3 0.5 0 2.9 1.3 5.2 2.9 2.4 1.5 7 4.2 10.3 5.8 3.3 1.7 7 3.3 8.2 3.7 1.8 0.4 3.1-0.2 5.5-2.6 2.4-2.5 3.1-4.1 3.1-6.8-0.1-1.9 0.1-4.5 0.3-5.7 0.2-1.4 1.1-2.3 2.1-2.3 1 0.1 2.3-0.5 3-1.2 0.7-0.7 1-2.2 0.7-3.3-0.4-1.5 0.1-2.2 2-2.7 2.3-0.7 2.5-1.2 2.1-4.3l-0.5-3.5c7.4 0.9 11.2 0.7 13.2 0.1 3-0.9 4-1.7 4.5-4.2 0.6-2.4 1.5-3.2 4.3-3.9 1.9-0.5 5.5-1.2 8-1.6 3.3-0.5 5.5-0.2 8 1 1.9 0.9 3.9 1.6 4.5 1.7 0.5 0 1.6-1.3 2.3-2.8 1.1-2.4 1.1-2.9-0.2-3.5-0.9-0.5-1.6-1.3-1.6-1.8 0-0.5 3.6-4.6 8-9 4.4-4.4 7.7-8.3 7.2-8.6-0.4-0.3-2.3-1.2-4.2-2-1.9-0.8-4.3-1.4-5.3-1.4-0.9 0-2.4-1.4-3.2-3-1.1-2.3-2.4-3.2-5.3-3.6-2-0.4-4.5-1.1-5.5-1.5-0.9-0.5-1.9-1.8-2.2-2.9-0.3-1.3-1.2-1.9-2.4-1.7-1.1 0.1-2.9 1.2-4 2.5-1.2 1.2-2.4 2.2-2.9 2.2-0.4 0-1.8-1.1-3.2-2.5-1.4-1.4-3.2-2.6-4-2.8-0.8-0.2-2.5 0-3.8 0.4-1.2 0.5-2.2 1.6-2.2 2.4 0 0.8-1 2-2.3 2.6-1.6 0.8-2.7 0.8-4.2-0.1-1.7-1.1-2.5-0.9-5.5 1.3-1.9 1.3-4.5 2.7-5.8 3.1-1.3 0.3-2.6 1.8-3.2 3.6-0.6 1.8-1.7 3-2.8 3-0.9 0-3.8 1.1-6.3 2.3-2.5 1.2-5.4 3.1-6.5 4.1-1.6 1.6-2.9 1.8-8.4 1.3-3.6-0.4-8.3-1.3-10.5-2-2.2-0.8-4.1-1.9-4.3-2.6-0.1-0.6 0.7-1.6 1.8-2.1 1.1-0.5 2-1.7 2-2.5 0-0.8-1-2-2.3-2.6-1.6-0.8-2.8-0.8-4.5 0-1.4 0.7-2.8 0.8-4 0.2-1-0.6-2.4-0.6-3.5 0-0.9 0.5-1.7 2-1.7 3.4v2.5l-8-4c-7.8 4-10.6 4.5-20.5 4.8-10 0.3-13.2 0.1-19-1.6-3.9-1.2-9.6-3.5-12.8-5.1-3.1-1.7-6.6-3.1-7.7-3.1-1.1 0-3.6-1.4-5.5-3-1.9-1.6-3.5-3.6-3.5-4.2 0.1-0.7-0.9-2.2-2-3.3-1.1-1.1-2.6-3.2-3.3-4.8-0.6-1.5-2.2-2.9-3.5-3.2l-2.2-0.5c3.1-3.1 4.1-5 4.2-6.2 0-1.3 0-3.1 0-4-0.1-1-1.8-4.2-3.8-7-3.6-5.3-3.6-5.3-1.3-5.6 1.3-0.2 3-0.5 3.6-0.7 1-0.4 1-1.3-0.1-4.2-0.8-2.1-1.3-4.1-1-4.5 0.2-0.5-0.4-2.6-1.4-4.8-0.9-2.2-2.3-4-3-4-0.8 0-1-1-0.6-3.2 0.4-1.8 0.8-3.5 1.1-3.8 0.2-0.3 1.3 0.1 2.3 0.8 1.1 0.6 2.6 1.2 3.2 1.2 0.7 0 2.5-2.7 4-6l2.8-6c-3.2-4.3-4-6.6-4-8 0-1.4-0.3-2.8-0.7-3.2-0.4-0.4-1.3 0-2 1-0.7 0.9-1.3 3.2-1.3 5 0 1.7-0.5 3.2-1 3.2-0.6 0-1.2-0.7-1.5-1.5-0.3-0.8-1.2-1.5-2-1.5-0.8 0-1.7 0.7-2 1.5-0.3 0.8-0.5 2.5-0.5 3.8 0.1 1.2-0.9 3.1-2 4.2q-2 2-3 1c-0.6-0.5-1.1-7.5-1.3-15.3-0.1-10.1-0.6-14.6-1.5-15.3-0.8-0.6-2-0.4-3.5 0.6-2 1.4-2.4 1.3-4.2-0.5-1.1-1.1-2.8-2.1-3.8-2-0.9 0-2.5 1.2-3.6 2.8-1 1.5-3 5-4.5 7.7-1.4 2.8-3.4 9.3-4.5 14.5l-1.8 9.5c-1.2-7.1-1-11.2-0.4-14.2 0.6-2.9 2.6-7.8 4.3-10.9 1.8-3.1 3.6-5.8 4-6 0.5-0.2 1.5-2.1 2.4-4.1 0.9-2.1 1.5-5.7 1.5-8-0.1-2.4-1-6.2-2-8.5-1.1-2.4-1.7-5.2-1.4-6.3 0.3-1.1-0.1-2.4-0.8-2.9-0.8-0.4-1.7-0.4-2.2 0-0.4 0.5-1.6 4.5-2.7 8.9-1.2 4.4-1.8 8.8-1.5 9.8 0.3 0.9 1.8 2.2 3.5 2.7 1.6 0.5 3 1.5 3 2 0 0.5-0.5 1-1 1-0.6 0-2.8-0.9-5-2-2.2-1.1-4.4-2.8-4.9-3.7-0.5-1-0.7-3.2-0.4-4.8 0.3-1.6-0.1-4.3-0.9-5.8-0.7-1.5-1.9-3-2.6-3.2-0.6-0.3-1.4 0.2-1.7 1-0.3 0.8-1.3 1.5-2.3 1.5-0.9 0-3.8-0.7-6.5-1.5-2.6-0.8-4.9-2-5.2-2.5-0.3-0.5 0.2-2 1-3.2 1-1.6 1.5-4.8 1.5-10.5 0-4.6 0.4-9.4 1-10.8 0.5-1.4 1.8-2.5 2.7-2.5 1 0 3.1-0.9 4.8-1.9l3-2c4.3 3.8 6.3 4.9 7.2 4.9 1 0 2.9-0.8 4.2-1.7 1.4-1 3.1-3.3 3.8-5 0.7-1.8 1.3-4.5 1.3-6-0.1-1.6 0.8-3.9 2-5.3l2-2.5c4 4.7 4.2 5.8 3.7 11.5-0.4 3.6-0.2 7.1 0.3 7.8 0.7 0.8 1.6 0.9 3 0.2 1.5-0.8 2.2-0.6 2.7 0.6 0.5 0.9 2.5 2.5 4.5 3.5 2.1 1.1 4.6 1.9 5.5 1.9 1 0 3.7-2.3 6-5 2.4-2.8 4.7-6.1 5.3-7.5 0.5-1.4 1-3.9 1-5.5 0-1.7-0.8-3.8-1.9-4.7-1-1-3.5-3.9-5.5-6.5-2-2.7-3.9-6.3-4.2-8-0.4-1.8-1.7-4.9-3-6.8-1.8-2.8-2.2-4.1-1.6-6.5 0.5-1.8 1.6-3.1 2.8-3.3 1-0.2 3.9 0.6 6.4 1.8 3.7 1.9 5.1 2.1 8 1.4 2.5-0.7 3.6-1.6 3.7-3.2 0.2-1.2-0.2-2.2-0.7-2.2-0.6 0-6.3-3.9-12.8-8.8-6.4-4.8-14.2-9.8-17.2-11.1-3-1.3-7.5-2.6-10-2.8-3.5-0.4-5.7 0.2-10 2.4-3.5 1.8-5.6 3.5-5.8 4.8-0.2 1.1 0.7 2.9 1.9 4 1.5 1.4 3.9 2.1 7.8 2.4 3.3 0.2 6.3 1 7.4 2 1 0.9 1.8 2.2 1.7 2.9 0 0.6-0.8 1.4-1.8 1.7-0.9 0.3-6-0.1-11.2-0.9-5.7-0.8-11.5-2.3-14.5-3.8-2.8-1.4-7.5-4.8-10.5-7.6-3-2.7-8-8.8-11-13.6-3.2-4.9-6.1-8.5-6.9-8.4-0.8 0.2-1.9 1.1-2.5 2-0.8 1.3-0.7 3 0.6 7 1.1 3.5 3.6 7.4 7.3 11.6 3 3.4 5.5 6.3 5.5 6.5 0 0.1-2.3 0.5-5.2 0.9-2.9 0.3-6.4 1.5-7.8 2.6-1.4 1-3 2.8-3.5 3.8-0.6 1.1-5.8 6.5-11.8 12.2-5.9 5.6-11.5 10.2-12.5 10.2-0.9-0.1-2.4 0.7-3.2 1.6-0.8 0.9-1.8 4.5-2.2 7.8-0.3 3.4-1 8.9-1.5 12.4-0.6 4.6-1.2 6.4-2.6 6.7-0.9 0.3-1.7 0.8-1.8 1.3 0 0.4-0.2 2.2-0.5 4-0.2 1.7-1.5 5.8-2.9 9-2.1 4.6-2.5 7.3-2.5 13.7 0 5.1 0.7 10.2 2 14.3 1.1 3.4 2 8.2 2 10.7 0 2.5 0.7 6 1.6 7.8 0.9 1.8 1.4 4.5 1.1 6.2-0.3 1.6-0.8 3.9-1.2 5-0.5 1.5 0.6 3.5 4.3 8 2.7 3.3 7.3 9.4 10.1 13.5 2.8 4.1 5.1 8.1 5.1 8.8 0 0.6 1.1 1.9 2.5 2.7 1.4 0.8 2.9 1.3 3.5 1 0.5-0.3 2 0.7 3.2 2.1 1.3 1.5 4.1 3.7 6.3 4.9 2.2 1.3 6.1 2.5 8.7 2.9 2.7 0.3 6.1 1.3 7.8 2.1 1.6 0.8 3.7 1.3 4.5 1 0.8-0.3 1.5-1.2 1.5-2 0-0.8 0.9-2 2-2.5 1.1-0.5 3.1-1 4.5-1 1.4 0 3.2-0.3 4.1-0.7 0.9-0.5 2.3-2 3-3.5 0.8-1.6 3-3.5 5.1-4.4 2.7-1.1 4.1-1.2 4.8-0.4 0.7 0.7 0.4 2.1-1 4.3-1.7 2.7-2 4.9-2 13.7 0 8.2 0.5 12 2.2 17 1.3 3.6 3.7 8.7 5.5 11.4 1.8 2.7 5.8 7.1 8.8 9.8 3 2.7 7.7 6 10.5 7.3 2.7 1.3 8.6 3.4 13 4.6 4.4 1.2 10.2 2.5 13 2.9 2.7 0.4 5.7 1.1 6.5 1.5 0.8 0.5 4.2 1.4 7.5 2.1 3.3 0.7 9.6 2.8 14 4.8 4.4 1.9 8.1 4.1 8.3 4.8 0.2 0.7-1.3 2.1-3.3 3.1-1.9 0.9-6.1 2-9.3 2.3-3.1 0.3-11.1 1.6-17.7 2.9-6.6 1.3-15.4 3.3-19.5 4.4-4.1 1.1-9.8 3.1-12.5 4.5-2.8 1.4-6.4 2.5-8 2.5-1.7 0-4.7 1.3-7 2.9-2.2 1.6-7.8 4.6-12.5 6.6-4.7 2.1-10.5 4.5-13 5.4-2.5 0.8-5.7 2.7-7.2 4.1-1.8 1.7-3.3 2.3-4.3 1.9-1-0.5-2.4 0.1-4 1.7-1.6 1.6-3.2 2.3-4.5 2-1.6-0.4-2.4 0.4-4 3.5-1.1 2.2-2.3 4-2.8 4.1-0.4 0.1-2.3 0.3-4.2 0.4-1.9 0.2-3.8 1-4.2 1.7-0.4 0.7-0.9 1.5-1 1.8-0.2 0.3-3.9 3.3-8.3 6.7-4.4 3.5-9.7 7.5-11.8 9-2.1 1.6-6.6 5.3-10 8.4-3.4 3-8.2 6.7-10.7 8.2-2.7 1.6-7.5 3.1-12 3.8-4.2 0.7-10.3 2.5-13.9 4.3-3.5 1.7-6.9 4.1-7.5 5.4-0.6 1.2-1.6 2.2-2.1 2.2-0.6 0-3.4 2.4-6.3 5.5-2.8 3-6.5 8.3-8.2 11.8-1.6 3.4-3 7-3 8 0 0.9-0.3 1.8-0.8 2-0.4 0.1-1.9 1.8-3.3 3.7-1.5 1.9-3 4.9-3.4 6.5-0.4 1.6-1.8 4.8-3.1 7-1.3 2.2-2.4 4.6-2.4 5.3 0 0.6-1.1 2.9-2.5 5-1.4 2-3.3 6-4.2 8.7-0.8 2.8-2.7 7.3-4 10-1.4 2.8-3.8 8.4-5.5 12.5-1.6 4.1-4 9.8-5.4 12.5-1.6 3.2-2.4 6.8-2.5 10 0 3.4 0.5 5.5 1.6 6.5 1.5 1.4 1.5 1.6-0.3 3-1.4 1.1-2.1 3.2-2.6 7.8-0.5 5.3-0.3 6.6 1.4 8.7 1.1 1.4 2 3.7 2 5.3 0 1.5 0.5 3.3 1.2 4 0.7 0.7 2 1.2 2.8 1.2 0.8 0 2.3 1.5 3.2 3.5 1 1.9 2.2 3.5 2.8 3.5 0.6 0 0.7 2.2 0.2 6-0.5 4.4-0.4 6 0.5 6 0.6 0 1.9-0.7 2.7-1.5 1.4-1.3 1.7-1.3 2.1 0 0.3 0.8 0.5 1.7 0.5 2 0 0.3-0.7 0.5-1.5 0.5-0.8 0-1.7 0.9-2 2-0.3 1.1 0.1 2.7 0.7 3.6 0.8 1 2.1 1.3 3.5 1 2.1-0.5 2.3-0.3 1.8 2.4-0.4 2.1 0.1 3.6 1.5 5 1.1 1.1 3.2 2 4.7 2 1.6-0.1 3.6 0.7 4.5 1.7 1.7 1.7 1.7 1.9-0.7 3.1-1.4 0.6-2.5 2-2.5 3 0 0.9 0.8 3.8 1.8 6.5 0.9 2.6 2 4.7 2.4 4.7 0.5 0 1-0.5 1.3-1 0.3-0.5 1.4-1 2.5-1 1.1 0 2.2 0.7 2.5 1.5 0.3 0.8 0.5 3.2 0.5 5.3 0.1 2.9 0.8 4.3 3.5 6.7 1.9 1.7 3.4 3.9 3.4 5 0 1.1 0.7 2.6 1.6 3.3 1.2 1 2 0.9 4.4-0.5 2.8-1.8 3-1.7 5.7 0.5 1.6 1.3 3.4 3.3 4.1 4.5 0.7 1.2 1.2 3.4 1.3 5 0 1.7-1 3.5-2.8 5.1-2.4 2.1-2.5 2.5-1.2 4 0.8 0.9 1.7 1.7 2 1.7 0.3 0 1.7-1.1 3.2-2.3 1.5-1.3 3.7-3 4.9-3.8 2.2-1.5 2.2-1.5 0.3-4.3-1.8-2.7-1.8-2.9-0.2-4.5 1.6-1.6 1.9-1.6 3.9 0.3 1.4 1.4 4 2.2 8.2 2.5 3.6 0.3 6.2 1 6.4 1.8 0.2 0.6-1 1.5-2.7 2-1.7 0.4-3.2 1.3-3.5 2-0.3 0.6-0.1 2 0.4 3 0.5 0.9 1.3 3 1.8 4.7 0.6 2 1.6 3.1 3.1 3.3 1.7 0.1 2.3-0.4 2.7-2.8 0.4-2.5 1-3 3.2-3 1.6 0 4.7-0.9 7-2 2.4-1.1 4.3-2.5 4.3-3 0-0.5 1.5-1 3.2-1 1.8-0.1 4 0.6 4.8 1.5 0.8 0.9 2.3 1.6 3.2 1.5 1 0 2-1 2.3-2.2 0.2-1.3-0.2-3.1-1-4-1.4-1.6-1.1-2.1 3.5-4.8 3.4-2 5.2-3.9 5.7-5.7 0.4-1.6 2.1-4.6 3.8-6.8 1.7-2.2 3.4-4.6 3.8-5.2 0.4-0.7-0.1-2.2-1.1-3.3-0.9-1.1-1.4-2.3-0.9-2.8 0.4-0.4 1.3-0.1 2 0.6 0.6 0.7 2.2 1.2 3.4 1.2 1.6 0 2.8-1.1 4.1-3.7 1.2-2.4 2.1-3.3 2.5-2.5 0.4 0.6 1.1 1.2 1.7 1.2 0.5 0 1.2-0.9 1.5-2 0.3-1.1-0.2-3.7-1-5.7-0.9-2.1-1.5-4.3-1.5-4.8 0-0.5 1.6 0.6 3.5 2.5 2 1.9 4.3 5.1 5.1 7 1.3 2.7 1.4 4 0.5 5.8-0.8 1.5-0.8 3-0.1 4.7 0.5 1.4 2.3 4 3.9 5.8 1.6 1.7 3.7 4.9 4.5 7 0.9 2 2.6 4.1 3.8 4.6 1.3 0.5 3 0.5 4 0 1.2-0.6 1.6-1.5 1.2-2.6-0.3-1-0.1-3.4 0.5-5.3 0.5-1.9 1.9-4.7 3.1-6.2 1.7-2.4 2.4-2.7 4.7-2 1.6 0.5 3.8 1.8 5 3 1.3 1.2 2.9 2 3.5 1.8 0.7-0.1 2.2-1.5 3.3-3 2-2.6 2-2.8 0.2-8.6-0.9-3.3-1.7-7.1-1.7-8.5 0-1.4 1.4-4.1 3.4-6.2 1.9-2.1 4-6 4.8-8.8 0.9-3.5 2.1-5.4 3.8-6.2 1.4-0.7 2.8-1.8 3.2-2.5 0.4-0.7 0.3-2.9-0.2-4.8-0.6-1.9-1-4.1-1-4.7 0-0.8 2-1.6 4.7-1.9 3.6-0.5 5.5-0.2 7.8 1.1 1.6 1 3.8 1.5 4.7 1.1 1.5-0.5 1.7-1.4 1.3-5.1-0.3-2.7-0.1-4.5 0.5-4.5 0.5 0 1.2 0.5 1.5 1 0.3 0.5 1.4 1 2.5 1 1.4 0 2.3-1 3.1-3.7 1-3.2 0.9-4.6-0.7-8.6-1.4-3.5-2.5-5-4.2-5.3-1.4-0.2-2.2-1.1-2.2-2.4 0-1.3 1-2.3 2.7-2.9 1.6-0.4 3.6-0.5 4.7-0.2 1 0.3 2.3 2.2 3 4.1 0.7 2.2 2.1 3.9 3.8 4.7 2.3 1 3.1 1.1 4.3 0.1 1-0.8 1.6-2.8 1.5-5 0-2.7 0.7-4.5 2.5-6.3 1.3-1.4 3.3-2.5 4.5-2.5 1.2 0 2.2-0.8 2.5-2 0.3-1.1-0.2-2.7-1-3.5-0.8-0.8-3.3-1.5-5.5-1.5h-4c2.8-5.7 2.8-6.3 1.5-8.5-1.4-2.3-1.3-2.8 0.5-5.5 1.1-1.7 2.9-3 4-3 1.4 0 2.6 1.3 4 4.5 1.4 3.2 2.6 4.5 4 4.5 1.2 0 2.7-1.2 3.7-3.1 1.4-2.4 3.1-3.4 7.7-4.7 3.2-0.9 6.2-2.3 6.5-3 0.3-0.7 0-1.8-0.7-2.5-0.7-0.7-1.2-2.2-1.2-3.4 0-1.5 0.8-2.5 2.2-2.9 1.3-0.4 4.1-0.6 6.3-0.6 2.2 0.1 5.5 0.6 7.2 1.2 2.9 0.9 3.4 1.5 3.9 5.3 0.3 2.3 0.1 8.2-0.6 13.2-1.1 9-1.1 9 1.5 12.5 2.3 3 2.6 4.2 2.1 8.3-0.4 3-0.2 5 0.6 5.5q1.1 0.7 0.6 6.7c-0.4 3.7-0.1 7.3 0.7 9.5 0.6 1.9 1.5 10 1.9 18 0.3 8 1.1 18.5 1.6 23.5 0.6 5 1.7 11 2.5 13.5 0.8 2.5 1.7 6.2 2 8.3 0.3 2 0.9 3.7 1.5 3.7 0.5 0 2.1-1.2 3.5-2.7 1.4-1.6 3.7-6.4 5.3-10.8 2.6-7.7 2.7-8.8 2.6-27.5 0-18.5-0.1-19.9-2.7-27.5-2.3-6.7-2.7-9.7-2.7-18 0-5.5 0.5-13.4 1-17.5 0.6-4.1 1.8-11.5 2.7-16.5 1-5 3.1-11.7 4.8-15 1.7-3.3 3.7-6 4.5-6 0.8 0 2.4 1.8 3.4 4 1.8 3.6 2 6.3 2 26 0 12.1-0.3 39.1-0.7 60-0.7 30.5-1.3 42-3.3 58.5-1.4 11.3-3.9 29-5.6 39.5-2.2 13.9-3.8 20.9-6 26-1.7 3.8-3.3 8.3-3.6 10-0.3 2.1 0.2 3.9 1.7 6q2.2 3 3 10c0.4 3.8 1.3 8 1.9 9.3 0.7 1.2 1.2 3.1 1.2 4.2 0 1.1-0.6 2-1.3 2-0.6 0-2.2 1-3.4 2.3l-2.1 2.2c-0.9-4.3-1.9-5.7-2.7-6-0.8-0.3-2.3 0.3-3.3 1.3-1.5 1.5-1.7 3.2-1.5 12.7 0.1 6 0.6 11.3 1 11.8 0.5 0.4 1.5 0.5 2.3 0.2 0.8-0.2 2.2-2.6 3-5.2 1-3.1 2.1-4.9 3.2-5 1-0.2 2 0.5 2.3 1.5 0.3 0.9 0.3 3.3 0 5.2-0.3 1.9-1.3 4.4-2.3 5.5-1 1.1-1.7 2.7-1.7 3.5 0 1.1 1 1.4 3.3 1.3 2.2-0.2 3.7 0.3 4.9 1.8l1.8 2.1c5-4 6.8-5.2 7.2-5.2 0.5 0 1.8-2.6 3-5.8 1.6-4.4 1.9-6.3 1.2-8.2-0.7-1.7-0.7-4.4 0.1-8.5 0.9-5 0.8-6.8-0.5-10.5-0.8-2.5-1.5-5.5-1.5-6.7 0-1.3 0.8-4.1 1.7-6.3 1-2.3 2.2-3.9 2.8-3.7 0.5 0.2 1.3 2.1 1.7 4.3 0.4 2.1 0.7 8.4 0.8 13.9 0 5.5 0.2 11 0.5 12.3 0.4 1.6 1.2 2.2 3 2.2 1.4 0 2.5-0.3 2.5-0.7 0-0.5 1.6-3 3.7-5.8 2.1-2.7 4.9-7.1 6.3-9.7 1.4-2.6 4.3-7.8 6.4-11.5 2.1-3.7 6.8-10.4 10.4-14.8 3.6-4.4 7.5-9.6 8.7-11.5 1.2-1.9 5.5-8.7 9.6-15 4-6.3 9.8-14.2 12.9-17.5 3-3.3 6.3-7.7 7.3-9.7 0.9-2.1 2.1-4 2.7-4.3 0.5-0.3 4-5 7.7-10.5 3.8-5.6 8.2-12.4 10-15.3 1.8-2.9 4.5-7 6.1-9.2 1.6-2.2 3.5-5.1 4.2-6.5 0.7-1.4 2.7-4.3 4.5-6.5 1.8-2.2 3.5-5.8 3.9-8 0.5-2.2 1.4-5.2 2.2-6.7 0.8-1.6 4.6-6.3 8.5-10.5 3.8-4.3 8.1-10 9.5-12.8l2.5-5c-2-48-2.6-68.2-2.6-75.7 0-7.8 0.4-14.1 1-14.7 0.5-0.6 6.2-2.4 12.5-4.1 6.3-1.6 18.2-4.6 26.5-6.6 8.2-2 19.7-5.1 25.5-7 10.5-3.4 10.5-3.4 17.6-11.2 3.9-4.2 8.8-10.5 10.8-13.9 2-3.5 4.5-6.8 5.6-7.3 1.1-0.5 2.5-1 3-1 0.5 0 1 2.1 1 4.8 0 2.6 0.7 7 1.6 9.7 1.2 4 1.4 7.8 0.9 19.5-0.5 11.5-0.3 15.7 1 20.3 0.8 3.1 1.5 7.4 1.5 9.5 0 2 1.4 8.7 3.1 14.7 1.7 6 3.7 12.8 4.4 15 0.8 2.2 2.6 7.4 4 11.5 1.5 4.1 3.3 8.2 4.1 9 1.2 1.3 1.7 1.3 4.4-0.2 1.7-1 4.9-1.8 7.2-1.8 2.4 0 5-0.4 5.8-0.9 1.2-0.8 0.8-1.6-2.5-4.6-2.2-2.1-5.7-4.9-7.8-6.4-2.1-1.4-4-3.3-4.3-4.1-0.2-0.8-0.2-2.3 0.1-3.2 0.3-1.1-0.3-2.5-1.6-3.5-1.9-1.7-1.9-2-0.6-4.8 1.1-2.3 1.2-3.9 0.5-6.5-0.6-1.9-1.8-4.4-2.9-5.5-1-1.1-1.9-2.8-1.9-3.7 0-1 0.7-2.9 1.5-4.3q1.5-2.6 0.6-4.2c-0.5-1-2.1-2.9-3.5-4.3-1.8-1.7-2.6-3.5-2.6-5.7 0-1.8 0.5-4.5 1.1-6 0.9-2.5 0.7-3-2.2-5.3-2.6-2.1-3-3-2.6-5.5 0.3-1.6 1-4.6 1.5-6.5 0.5-1.9 0.5-4.4 0.1-5.5-0.4-1.1-0.8-3.4-0.9-5 0-1.6 0.8-4.2 2-5.7 1.1-1.6 2-3.4 2-4 0-0.7-0.9-1.9-2-2.5-1.1-0.7-2.2-2.5-2.5-4-0.3-1.6-0.1-4.4 0.5-6.3 0.7-2.4 0.6-4.6-0.1-7-0.9-2.8-0.8-4.5 0.5-8.5 0.9-2.7 1.6-6 1.6-7.2 0-1.3 0.9-4 2-6 1.1-2.1 2-4.3 2-4.8 0-0.5 2.2-3.4 5-6.2 4.2-4.4 4.9-5.8 4.5-8-0.4-2.1 0.2-3.9 2.5-7 1.6-2.4 5.2-8.3 8-13.3 2.7-5 7.1-11.8 9.6-15.2 2.5-3.5 6.3-9.7 8.4-13.8 2.1-4.1 4.9-9.1 6.2-11 1.4-1.9 2.8-4.6 3.2-6 0.5-1.4 2.5-5.6 4.6-9.5 2.1-3.9 5.2-10.6 6.9-15 1.6-4.4 4.6-11.8 6.5-16.5 2-4.7 3.6-9.5 3.6-10.7 0-1.3 1.5-7.1 3.4-13 1.9-6 4.5-14.8 5.7-19.8 2-7.9 2.3-11.8 2.3-30.7 0.1-20.6 0.2-21.7 2.2-24 1.2-1.3 2.5-3.2 2.8-4.3 0.4-1.3-0.1-3.1-1.5-5-2-2.6-2.1-3.4-1.1-6 0.7-1.6 1.2-3.7 1.2-4.5 0-0.8 1-2.5 2.2-3.8 1.3-1.2 3-2 3.8-1.7 0.8 0.4 2.1 0 2.7-0.7 1-1 1-2.1 0.2-4.8-1-3-0.9-3.6 0.5-4.2 0.9-0.5 2.1-2.5 2.7-4.5 0.8-2.8 0.8-5.2 0-9.3q-1.1-5.5-0.2-10.5c0.5-2.7 1.9-6.7 3-8.7l2.1-3.8c-3.5-2.3-5-3-5.5-3-0.5 0-1.8-0.7-2.7-1.7-1-1-1.8-2.6-1.8-3.5 0-1 1.9-3 4.2-4.6 3.6-2.3 4.6-3.6 6.1-8.7 1.1-3.3 2.4-7.1 3-8.4 0.7-1.3 3.9-5 7.2-8.2 4.3-4.2 7.6-6.4 11.7-7.9 4.9-1.7 6.3-2.7 8.8-6.7 1.7-2.7 3-5.4 3-6 0-0.7 2.5-2.9 5.5-4.8 3-1.9 6.6-5 8-6.7 1.3-1.8 3.1-5.3 3.9-7.8 0.9-2.5 2.2-10.6 3.1-18 1.3-11.8 1.9-14.4 5-20.5 1.9-3.9 3.5-7.6 3.5-8.2 0-0.7 1-3.2 2.1-5.5 1.2-2.4 3-5.2 4-6.3 1-1.1 3-5.1 4.4-9 1.4-3.9 2.5-7.9 2.5-9 0-1.1 1.3-6.2 3-11.2 1.6-5.2 3.4-13.6 4-18.8 0.6-6 0.7-11.8 0.1-15.7-0.5-3.5-1.9-10.2-3-15-1.2-4.9-2.9-10.3-3.8-12-0.9-1.8-2.2-6-2.8-9.3-0.9-5-1.5-6.2-3.8-7.2-2.1-1-3.1-2.6-4.3-7-0.9-3.2-2.3-6.7-3-7.8-0.7-1.1-3.4-3.1-6-4.5-2.6-1.4-5.8-4.1-7-6-1.3-1.9-4-7.6-5.9-12.5-1.9-4.9-4.5-10.8-5.8-13-1.4-2.5-3-4-4.2-4-1.4 0-1.9 0.6-1.7 2 0.2 1.1-0.4 3.6-1.3 5.5-1.1 2.1-1.4 4.5-1 6 0.3 1.4 2 5.3 3.6 8.8 1.6 3.4 3.1 8.1 3.5 10.5l0.5 4.2c-5.1-6.1-8.5-9.8-10.9-12.2-3.5-3.5-4.1-4.8-3.6-7 0.3-1.6 0.3-3.9-0.1-5.3-0.3-1.4-1.6-3.1-3-3.7-1.4-0.7-5.6-1.3-9.5-1.3-3.9 0-7.2-0.4-7.5-1-0.3-0.6 0.1-2.5 0.7-4.4 1.2-3.1 1.1-3.7-0.7-5.7-1.1-1.1-3.2-3-4.8-4-2-1.4-3.2-1.7-4.7-0.9-1.7 0.9-2.2 0.5-3.5-2.7-0.9-2.1-4-8.7-7-14.8-3-6.1-6.2-12.8-7.1-15-0.9-2.2-1.6-4.3-1.6-4.7 0.1-0.5-0.3-1.5-0.8-2.3-0.5-0.8-1.6-1.3-2.3-1-0.9 0.4-0.8 2.5 0.6 9.3 0.9 4.8 2.2 10.3 2.7 12.2 0.5 1.9 1 5.4 1 7.8 0 3.4-0.3 4.2-1.7 4-1.2-0.2-2.1 0.8-2.9 3.2-1.1 3-1.3 3.2-1.9 1.5-0.4-1.1-0.5-3.5-0.1-5.2 0.4-2.5 0.1-4-1.5-6-1.1-1.6-4.6-6.4-7.7-10.8-3.1-4.5-9.3-15.2-13.7-23.8-4.4-8.7-8.3-15.8-8.8-15.7-0.4 0-0.9 0.4-1.2 1-0.3 0.6 0.6 6.1 1.9 12.3 1.3 6.1 4.3 16.8 6.6 23.7 2.3 6.9 5.3 15.4 6.6 19 1.4 3.6 3.7 8.1 5.3 10 1.5 1.9 4 5.8 5.5 8.5 1.5 2.8 3.3 6.1 4.1 7.5 0.8 1.4 2 3.9 2.8 5.5 0.8 1.6 1.2 4.1 0.9 5.5-0.2 1.4 0.4 4.2 1.4 6.4 1.1 2.2 3.2 4.5 4.9 5.4 1.6 0.8 4.8 3.1 7 5.1 2.2 2 5.6 4.8 7.5 6.3 2.4 1.8 3.2 3 2.5 3.7-0.7 0.8-1.7 0.6-3.5-0.7-1.4-1.1-3.9-2.6-5.5-3.5-1.6-0.9-4-1.4-5.3-1.1-1.7 0.3-2.4-0.2-3.2-2.6-0.5-1.6-1.3-3-1.8-3-0.4 0-1.3-1.1-2-2.5-0.6-1.4-2-2.4-3-2.3-0.9 0-3.1-0.2-4.7-0.7-2.1-0.5-4.1-0.2-6.5 0.9l-3.5 1.7c-14.2-14.3-16.8-16.4-17.9-15.8-0.9 0.4-1.9 1.3-2.2 2-0.3 0.6 0.6 3.9 2.1 7.2 1.4 3.3 3.9 7.4 5.4 9 1.6 1.6 3.3 3.9 3.9 5 0.7 1.2 0.7 2.6 0.2 3.5-0.8 1.3-1.4 1.2-4.6-0.5-2.1-1.1-6.2-4.9-9.3-8.5-3.1-3.6-9.6-10.6-14.6-15.6-5-5-11.4-10.4-14.2-12-4.3-2.4-5.2-3.3-4.7-4.9 0.4-1.3-0.1-2.5-1.4-3.5-1.2-0.8-2.8-3.7-3.7-6.5-1-2.7-1.8-7.9-1.9-11.6-0.1-5.4-0.8-7.8-4.1-14.5-2.1-4.3-5.6-9.5-7.6-11.4-2-1.9-4.6-5.4-5.8-7.7-1.1-2.4-2.6-4.5-3.1-4.8-0.5-0.3-1.5-0.3-2 0q-1 0.5 0 3c0.5 1.4 0.7 2.5 0.2 2.5-0.4 0-1.9-2.1-3.3-4.7-1.5-2.6-3.5-5.5-4.4-6.3-0.9-0.8-3.2-4.3-5.1-7.7-1.9-3.5-4.1-6.3-4.9-6.3-0.8 0-1.7 0.6-2.1 1.3-0.3 0.6 1.3 6 3.5 12 2.3 5.9 4.1 10.9 4.1 11.2 0 0.3-0.5 0.5-1 0.5-0.5 0-3.7-4.1-7-9-3.3-4.9-6.5-9-7-9-0.5 0-1.4 0.8-1.9 1.8q-0.9 1.7-2.5 1c-0.9-0.5-3.1-3.8-5-7.5-1.8-3.8-3.8-8.5-4.5-10.5-0.9-3.1-1.6-3.8-3.5-3.8-1.6 0-2.7 0.7-3 2zm-9.4 56.8c-0.2-1 0-1.8 0.5-1.8 0.4 0 2.6 0.9 8.8 4.1l-4.5-0.3c-3.3-0.2-4.6-0.8-4.8-2zm21.3 14.3c0.2-0.5 1.6-0.6 3.2-0.2 1.5 0.4 3.8 1.3 5 1.9 1.3 0.7 3 2.7 3.8 4.5 0.8 1.7 3.2 4.3 5.2 5.7 2.1 1.4 7.1 5.6 11.3 9.3 4.1 3.7 7.8 6.7 8.2 6.7 0.5 0 1-1.1 1.8-5l1.8 2.3c1 1.2 2.5 3.7 3.3 5.6 0.8 1.9 2.7 4.4 4.4 5.6 1.6 1.2 5.2 3 8 4 2.7 1.1 6.9 3.4 9.2 5.2 2.4 1.8 5.4 3.7 6.8 4.3 1.4 0.6 4.2 3.6 6.2 6.7 2.3 3.4 6.2 7.5 9.8 10.1 3.3 2.3 8.4 5.8 11.2 7.7 3.5 2.3 5.3 4.2 5.3 5.5 0 1.2-0.7 2-1.8 2-0.9 0-5.1-3-9.3-6.7-4.1-3.7-9.5-8.2-11.9-9.8-2.4-1.6-6.8-5.3-9.9-8.1-3.1-2.7-7.9-6.6-10.6-8.5-2.8-2-7.3-4.8-10-6.4-2.8-1.5-7.8-5.1-11.2-7.9-3.4-2.8-7.9-6.5-10-8.2-2.1-1.7-5.4-3.6-7.3-4.3-1.9-0.7-6-3.1-9.2-5.4-3.9-3-6.1-5.4-7.1-8.2-0.9-2.2-2.7-4.8-4.1-5.7-1.4-1-2.4-2.2-2.1-2.7zm16.7 4.2c-0.2-0.7 0.3-1.3 1.2-1.3 0.9 0 2.5 0.9 3.6 2 1.1 1.1 2 2.4 2 3 0 0.6-1.4 0.2-3.2-0.7-1.7-1-3.3-2.4-3.6-3zm159.7 24.9c0.8-0.7 1.9-0.8 3-0.3 0.9 0.5 2.5 1.9 5.6 5.2l-4.8-0.1c-3.8 0-4.7-0.4-4.9-1.8-0.1-1 0.4-2.3 1.1-3zm-54.7 33.1c-0.2-0.8 0.4-1.3 1.4-1.3 1.1-0.1 2.8 0.9 3.9 2 1.1 1.1 1.6 2.3 1.2 2.8-0.5 0.4-2 0-3.4-0.8-1.5-0.8-2.8-2.1-3.1-2.7zm26.5 0.2l2.3 2c1.2 1.1 2.6 2.8 3.1 3.8q0.9 1.7-0.4 2.6c-0.6 0.6-1.7 0.7-2.4 0.3-0.6-0.4-1.4-2.5-1.8-4.7zm-3.8 13c0-0.8 0.9-1.5 2-1.5 1.1 0 2.9 1.2 4 2.8 1.2 1.5 1.9 2.8 1.8 3-0.1 0.2-2-0.4-4-1.3-2.1-0.8-3.8-2.2-3.8-3zm35.6 10.5c0.3-0.6 1.1-1 1.7-1 0.7 0 2.8 1 4.7 2.3 2 1.2 3.6 3.1 3.8 4 0.1 0.9-0.1 1.7-0.5 1.7-0.4 0-2.9-1.3-5.5-3-2.6-1.6-4.5-3.4-4.2-4zm-76.7 5.6c-0.1-1 0.5-1.2 2.1-0.8 1.3 0.4 2.5 1 2.7 1.5 0.2 0.4 0.2 1 0.1 1.3-0.2 0.3-1.3 0.3-2.5 0-1.3-0.3-2.3-1.2-2.4-2zm-51.8 2.2c0-0.5 0.7-0.8 1.7-0.8 0.9 0 3.8 0.9 6.2 2.1 3.6 1.6 4.3 2.3 3.3 3.2-1 0.9-2.4 0.6-6.2-1.3-2.7-1.4-5-2.8-5-3.2zm66.9 9.2c-2-1.6-2.1-2-0.7-2 0.9 0 3.1 0.7 4.7 1.5 1.7 0.8 3 1.7 3 2 0 0.3-1 0.5-2.2 0.5-1.3 0-3.4-0.9-4.8-2zm77.8 136.3c0.5-1.3 0.8-0.9 1 1.7 0.2 1.9-0.2 3.9-0.7 4.5-0.8 0.7-1.1 0.1-1.1-1.8 0-1.5 0.4-3.5 0.8-4.5zm-49.9 42.6c1.4-1 3.7-1.8 5.3-1.8 1.6 0 2.8 0.5 2.8 1 0 0.5-1 3-2.2 5.5-1.3 2.4-4 5.6-6 7-2.1 1.4-4.4 2.5-5.3 2.5-1.1 0-1.3-0.7-0.9-2.8 0.3-1.5 1.3-4.2 2.3-6.1 0.9-1.9 2.7-4.3 4-5.3zm-485.4 25.6c1.1-0.8 2.8-1.4 3.8-1.4 1.5 0 1.7 0.7 1.1 6.7-0.4 4.3-1.4 7.7-2.5 9.3-1.1 1.4-1.9 3.4-1.9 4.5 0 1.1-0.6 3-1.5 4.2-0.8 1.3-2.9 2.5-4.7 2.9-2.4 0.4-3.8 0-5-1.3-1-1-1.8-2.4-1.8-3.1 0-0.7-1.2-1.2-2.8-1.2-1.5 0-3.3 0.6-3.9 1.2-0.7 0.7-1.6 1-2 0.6-0.4-0.4 0.5-2.1 2-3.8 1.5-1.6 2.9-4 3.2-5.3 0.3-1.2 0.7-3.3 1-4.7 0.3-2 1.7-2.9 6.7-4.8 3.5-1.3 7.2-3 8.3-3.8zm479.1 1.2c0.5-0.4 1.8-0.6 2.9-0.4 1.3 0.2 2.1 1.2 2.3 2.8 0.2 1.4-0.2 2.8-1 3.2-0.7 0.4-2.1 0.2-3-0.3-1-0.5-1.8-1.7-1.9-2.7-0.1-1 0.2-2.2 0.7-2.6zm-496.9 70.9c0.9-0.9 2.1-1.3 2.6-0.8 0.4 0.4 0.2 2.1-0.5 3.6-0.7 1.5-1.8 2.7-2.5 2.7-0.7 0-1.3-0.9-1.3-1.9-0.1-1.1 0.7-2.7 1.7-3.6zm41.3 24c0-0.8 0.4-1.5 0.8-1.5 0.4 0 2 1.3 3.5 2.8 1.5 1.5 2.8 3.2 2.8 3.7 0 0.5-0.8 1.8-1.8 2.8-1.7 1.7-1.8 1.6-3.5-2.3-1-2.2-1.8-4.7-1.8-5.5zm4 27c0-0.3 0.3-0.5 0.5-0.5 0.3 0 1.3 0.3 2.3 0.6 0.9 0.3 1.6 1.5 1.5 2.5-0.2 1-0.7 1.9-1.3 1.9-0.5 0-1.4-0.9-2-2-0.5-1.1-1-2.2-1-2.5zm124.6 263.8c0.4-1.8 0.9-3.3 1.3-3.3 0.3-0.1 1.4 0.7 2.3 1.7 0.9 1 2.4 3.6 3.3 5.8 0.9 2.2 1.6 6.5 1.5 9.5 0 3.8-0.5 6.1-1.7 7.3-1 1-2.8 1.8-4 1.7q-2.3 0-2.8-2.3c-0.2-1.2-0.5-5.6-0.5-9.7 0-4.1 0.3-9 0.6-10.8zm-138.8 78.7l2.1 2c1.3 1.3 2.8 1.9 3.9 1.5 0.9-0.4 2.5-0.8 3.5-1 0.9-0.2 1.7 0.1 1.7 0.6 0 0.5-0.9 1.5-2 2-1.1 0.5-3.4 0.9-5.2 0.7-2.8-0.2-3.3-0.6-3.6-3zm-52.1 36.6c0.7-1.3 1.7-2.5 2.3-2.5 0.5 0 1.6 1.2 2.2 2.5 1.1 2.2 1 2.8-0.5 4.3-1.6 1.6-1.8 1.6-3.5 0-1.4-1.5-1.5-2.1-0.5-4.3zm-103.3 7.5c1-1.1 2.5-2 3.2-2 0.8 0 2.7 0.9 4.4 2 1.6 1.1 3 2.7 3 3.5 0 0.8-0.7 1.7-1.5 2-0.8 0.3-2.7 0.5-4.3 0.6-1.5 0-3.6-0.9-4.7-2-2-2-2-2.1-0.1-4.1zm89.2 0.5c0.3-0.8 1.4-1.5 2.5-1.5 1 0 2.1 0.7 2.4 1.5 0.3 0.8 0.5 2.2 0.5 3 0 0.8-0.6 1.5-1.3 1.5-0.6 0-2-0.7-3-1.5-0.9-0.8-1.4-2.2-1.1-3zm-76 6.6c1-0.6 2.5-1 3.1-1 0.7-0.1 1.5 0.4 1.8 0.9 0.3 0.6 0.1 2-0.4 3.3-0.4 1.2-1.9 2.5-3.2 2.9-1.3 0.4-3 1.8-3.7 3.3-0.6 1.4-1.7 2.5-2.2 2.5-0.6 0-1-0.7-1-1.5 0-0.8 0.9-2.7 2-4.2 1.1-1.5 2-3.3 1.9-4-0.2-0.6 0.6-1.6 1.7-2.2zm378.3-1075.5c-2.4 3-4.3 5.8-4.2 6.2 0.1 0.4 1.2 1.6 2.3 2.7 1.5 1.5 2.1 3.3 2 7 0 2.8 0.7 6.1 1.5 7.5 0.8 1.4 2.5 4.8 3.9 7.5 1.3 2.8 3.8 6.3 5.5 7.8 1.7 1.5 4 2.7 5.1 2.7 1.1 0 2.4-0.8 2.9-1.7 0.5-1 0.6-2.6 0.2-3.5-0.6-1.7-0.4-1.7 3.9-0.2 2.5 0.9 5.1 2.1 5.8 2.8q1.3 1.1 2.3 0.1c0.8-0.7 0.5-2.5-0.8-6.2-1-2.9-1.4-5.6-1-6 0.5-0.4 4.3 0.5 8.5 2.1 4.2 1.5 12.4 4.1 18.2 5.8 5.8 1.6 13.5 3.3 17.2 3.9 4.8 0.6 7.3 1.5 8.5 3 1.1 1.2 2.5 1.8 3.5 1.5 1-0.3 1.8-1 1.8-1.6 0-0.5-2.6-3.8-5.8-7.2-3.8-4.1-6-7.5-6.5-9.8-0.3-1.9-1.7-4.5-2.9-5.7-1.3-1.3-4.3-2.9-6.8-3.7-2.5-0.7-7.7-1.7-11.5-2-3.9-0.4-10.2-1.8-14-3.2-3.9-1.4-11.9-3-18-3.7-8.7-0.9-11-1.5-10.8-2.7 0.1-0.8 0.5-2.4 0.8-3.5 0.4-1.2 0.1-2.7-0.9-3.7-0.9-1-2.7-1.8-4-1.8-1.7 0-3.6 1.6-6.7 5.6zm-97.9 34.5c-3 1.1-7.8 2.5-10.5 3-2.8 0.5-7.4 2.4-10.4 4.2-3.3 2-8.5 6.9-13.6 12.7-4.5 5.2-10 12.2-12.2 15.5-2.3 3.3-5.9 9.4-8.1 13.5-2.1 4.1-4.5 10.2-5.1 13.5-0.7 3.3-2.1 8.9-3.2 12.5-1 3.6-1.9 7.9-1.9 9.5 0 1.7 0.7 4.4 1.5 6 0.9 1.7 1.5 4 1.5 5.3 0 1.6 0.6 2.2 2 2.2 1.2 0 3-1.5 4.5-3.7 1.4-2.1 2.5-4.9 2.5-6.3 0-1.4 0.4-3 0.8-3.6 0.4-0.7 2-1.3 3.7-1.5 2.3-0.3 3.2-1.1 3.9-3.4 0.5-1.6 1-3.5 1.2-4.2 0.2-0.7 1.9-1.3 3.6-1.3 1.8 0 4.1 0.6 5.1 1.3 1.6 1.1 1.7 1.5 0.3 4.2-1.2 2.5-1.2 3.6-0.2 6.5 0.9 2.6 2.2 3.8 4.7 4.7 2.3 0.8 3.9 2.2 4.9 4.5 1.3 2.8 2.3 3.5 6.5 4.6 2.7 0.7 7.5 2.4 10.5 3.9 4.7 2.2 5.8 2.4 7.5 1.3 1.1-0.7 3.3-1.7 5-2.1 2.1-0.6 3.6-0.4 5.2 0.6 1.9 1.2 3 1.3 6 0.4 2.3-0.7 6.3-0.9 10-0.5 5.4 0.5 6.7 0.3 8.8-1.4 2.2-1.7 2.9-1.8 5.4-0.7 2.7 1.1 3.4 1 6-1 1.7-1.3 3.7-2.3 4.3-2.3 0.7 0 2-0.4 2.8-0.9 1.3-0.8 1.3-1.2-0.3-3.5-0.9-1.4-1.7-2.9-1.7-3.3 0-0.4 1.5-0.4 3.5 0 2.7 0.6 3.6 0.4 4-0.8 0.3-0.9-1.9-3.7-6-7.5-4.7-4.3-7.3-6-9.3-5.9-1.5 0-3.6-0.9-4.7-2.2-1.9-2-2-3.5-2-24.4 0-16.3-0.3-22.7-1.2-23.7-1-1-1.6-0.9-3.3 0.7-1.2 1.1-2.5 3.5-3 5.3-0.6 1.8-1.3 3.2-1.8 3.2-0.4 0-1.5-0.8-2.4-1.8-1.6-1.5-1.9-1.5-3.3-0.2-0.9 0.8-1.6 2-1.5 2.5 0 0.6-0.9 2.3-2 3.8-1.1 1.5-2.7 2.7-3.5 2.7q-1.5 0-1.5-3c0-1.8 0.9-3.9 2.5-5.5 1.4-1.4 2.5-2.9 2.5-3.5 0-0.5 1.8-3.2 4-6 2.2-2.7 4-5.7 4-6.5 0-0.9-0.6-1.3-1.5-1-0.8 0.3-3.6-0.4-6.3-1.5-2.6-1-5.7-3-7-4.2-2.2-2.2-2.2-2.3-0.5-5.5 1.6-2.8 1.6-3.4 0.3-4.6-0.8-0.8-2.4-1.7-3.5-2-1.1-0.3-4.5 0.3-7.5 1.4zm30.7 39.2c0.6-1.4 0.8-1.5 1-0.3 0.2 0.8-0.1 3.5-1.5 10.5l-0.1-4.2c-0.1-2.4 0.2-5.1 0.6-6zm-11 10c0.3-1.3 0.9-2.3 1.4-2.3 0.5 0 0.9 0.9 0.9 2 0 1.1-0.3 2.8-0.6 3.8-0.6 1.5-0.8 1.5-1.4 0.2-0.4-0.8-0.6-2.5-0.3-3.7zm-33.3 35.7c-0.5-2.4-0.5-2.4 1-0.5 0.9 1.1 1.6 3.1 1.6 4.5 0 1.4-0.5 3.2-1 4-0.7 1.2-1 0.7-1-2 0-1.9-0.3-4.6-0.6-6zm215.8-42.1c-1.5 1.5-3.9 4.2-5.5 6-1.7 1.9-3.6 3.1-5.2 3.1-1.4 0-3.7-0.6-5.3-1.4-1.5-0.7-3.6-2.3-4.7-3.5-1.1-1.2-3-2.1-4.3-2.1-1.9 0-2.2 0.6-2.2 4 0 2.2-0.5 5.1-1 6.5-0.7 1.7-1.8 2.5-3.3 2.5-1.2 0-4.6-0.9-7.5-2-2.8-1.1-7.6-2.5-10.5-3.1-3.9-0.8-5.7-0.8-7.2 0.1-1.5 1-2.8 1-5.3 0.1-2.2-0.7-4-0.8-5.7-0.1-1.4 0.6-2.7 1-3 1-0.3 0-2.5-1.8-5-4-2.6-2.2-5.2-3.8-6-3.5-0.9 0.3-1.3 1.3-1 2.5 0.3 1.1-0.1 2.7-0.8 3.6q-1.2 1.5-6.2 1.5-5-0.1-8 1.9c-1.7 1.1-5.3 2.2-8 2.5-3 0.4-7.2 0-10.5-0.8-3-0.8-6-1.3-6.5-1.1-0.6 0.2-1.6 1.8-2.3 3.4-0.6 1.7-1.8 2.9-2.5 2.7-0.6-0.2-1.9-2.5-2.7-5.1-1.2-3.7-1.9-4.6-3.5-4.4-1.1 0.2-2 1-1.9 1.8 0 0.8 0.4 4.7 0.7 8.5l0.7 7c-4.9 0-5.6 0.6-5.8 2.3-0.1 1.3-1.4 2.8-3.2 3.7-1.7 0.8-3 1.9-3 2.3 0 0.4 1.1 2.3 2.4 4.2 1.4 2 2.2 4.1 1.8 4.9-0.4 0.7-0.1 1.7 0.8 2.1 0.9 0.6 2.9 0.3 5-0.6 1.9-0.8 5.5-1.4 8-1.2 3.8 0.3 4.6 0 5.5-1.8 0.6-1.4 2.8-2.7 6-3.7 4.7-1.4 5.1-1.4 6.2 0.4 0.7 1.1 1.7 1.9 2.3 1.9 0.5 0 1.6-1.1 2.2-2.5 0.7-1.4 1.9-2.5 2.5-2.5 0.7 0 1.9 1.2 2.5 2.6 0.7 1.3 1.9 2.5 2.5 2.5 0.7-0.1 1.5-1.2 1.8-2.6 0.4-1.9 1.1-2.5 3.2-2.5 1.6 0 3.9 0.8 5.3 1.7 1.4 0.9 4 3 5.8 4.7 1.8 1.7 4.3 4.7 5.5 6.6 1.1 1.9 3.3 6.9 4.7 11 2.5 7 3 7.7 7.6 10.2 2.7 1.5 5.5 3.1 6.2 3.5 0.8 0.5 2 0.2 3-0.9 1.6-1.6 1.6-2-0.5-7.5-1.2-3.2-2.6-7.7-3.2-10-0.7-2.7-1.7-4.3-2.6-4.3-0.8 0-1.5 0.9-1.5 2 0 1.3-0.7 2-1.8 2-0.9 0-2.7-1.6-4-3.5-1.2-1.9-2.2-3.9-2.2-4.5 0-0.5 1.1-1 2.5-1 1.4 0 3.2-0.2 4-0.5 0.9-0.3 1.5-1.7 1.5-3.5v-3c9.9 0.4 12.7 1.2 14.5 2.5 1.5 1.1 3.3 2.9 3.9 4 0.6 1.1 1.5 2.3 2.1 2.7 0.5 0.3 1.9 0.4 3 0.1 1.1-0.3 4.5 0.8 7.5 2.3 3.3 1.6 6.3 2.5 7.5 2.1 1.1-0.3 2.6-0.1 3.2 0.4 0.7 0.5 2.2 0.7 3.3 0.4 1.1-0.3 1.8-0.9 1.5-1.5-0.3-0.5-0.2-1 0.2-1 0.5 0 1.6-0.5 2.7-1.2 1.7-1.2 1.7-1.5 0.2-4.5-1.2-2.4-1.3-3.3-0.4-3.3 0.7 0 2 0.8 2.9 1.7 0.9 1 3.8 6 6.5 11.1 4 7.5 5.3 9.3 7.1 9.2 1.3 0 2.3-0.1 2.3-0.2 0-0.2-0.7-2.4-1.5-5-0.9-2.9-1.1-4.8-0.5-4.8 0.5 0 1.7 1 2.5 2.3 0.8 1.2 4.2 6.3 7.5 11.2 3.3 5 7.8 11 9.9 13.5 3.5 4.1 3.8 4.3 3.7 2-0.1-1.4-0.8-4.7-1.5-7.5-0.7-2.7-1.1-5.7-0.9-6.5 0.3-1 1.3-0.2 3 2.5 1.4 2.2 3.2 4 4.1 4 1 0 1.7-0.4 1.7-1 0-0.5-1.2-3.7-2.5-7-1.4-3.3-2.5-6.8-2.5-7.7 0-1 0.6-1.6 1.2-1.4 0.7 0.2 2.5 3.6 3.9 7.7 1.4 4.1 3.6 9.4 4.9 11.9 1.2 2.5 3.5 6.2 4.9 8.3 1.4 2.1 3.2 3.8 3.8 3.8 0.7-0.1 1.5-0.4 1.7-0.8 0.3-0.4-1.5-5.1-3.9-10.3-2.3-5.2-5-11.7-5.9-14.5-0.8-2.7-2.7-8.6-4.1-13-1.5-4.5-2.5-9.7-2.3-11.9l0.3-3.9c4.6 6.5 6.4 8.4 7 8.3 0.5 0 1.5-0.8 2.1-1.8 0.9-1.3 1.5-1.4 2.5-0.5 0.8 0.7 2.7 1.1 4.4 1 2.9-0.2 3.2 0.3 9.5 13 3.6 7.3 6.4 13.4 6.2 13.5-0.1 0.2 0.4 0.9 1.3 1.6 0.8 0.7 1.9 1 2.5 0.7q1-0.5 0-3c-0.6-1.4-0.8-2.8-0.6-3.2 0.2-0.4 0.1-2.9-0.3-5.5-0.3-2.6-0.5-4.8-0.4-4.8 0.2 0 1.7 2.4 3.5 5.3 1.8 2.9 4.3 7.9 5.6 11.2 1.3 3.3 4.9 11.3 8 17.8 3.1 6.5 6.4 12 7.2 12.3 0.8 0.2 1.8 0.1 2.2-0.3 0.4-0.4-0.4-3.3-1.7-6.3-1.3-3-4.4-10.4-7-16.5-2.5-6-5.3-12.8-6.1-15-0.8-2.2-1.4-4.9-1.4-6 0-1.6 0.2-1.7 1.2-0.7 0.7 0.7 2.1 1.2 3 1.2 1 0 1.8-0.3 1.8-0.7 0-0.4-1.5-4.2-3.3-8.5-2.6-6.3-3-7.9-2-9.2 1.1-1.4 2-0.9 6.7 3.7 3.1 2.9 5.5 5.9 5.6 6.7 0 0.8 3.3 8.3 7.4 16.5 4 8.3 8 15.6 8.9 16.3 1.4 1 1.9 0.9 2.7-0.8 0.7-1.5 0.2-4.7-2-12.7-1.7-5.9-3-11.8-3-13 0-1.3-0.7-3-1.5-3.8-0.8-0.8-2.2-1.5-3-1.5-0.8 0-2-0.9-2.5-2-0.7-1.3-0.7-3 0-5.2 0.6-1.8 2.7-5 4.8-7.1 3.1-3.2 3.5-4 2.5-5.5-0.7-0.9-2.1-3.3-3.2-5.2-1-1.9-3.6-4.9-5.7-6.6-2.2-1.8-4.2-4.3-4.6-6-0.4-1.7-1.7-3.4-3.2-4.1-1.4-0.7-2.6-2-2.6-2.8 0-0.8-1.6-2-3.8-2.6-2.8-0.9-4.4-0.9-6.7 0-1.7 0.6-3.5 2.2-4 3.4-0.6 1.3-2.1 2.3-3.5 2.5-1.6 0.2-3.4-0.5-4.8-2-2.3-2.2-3-2.3-19.2-2.3-14.5 0-17.1 0.3-18.7 1.7-1 1-2.4 1.8-3.1 1.8-0.6 0-4.6-2.9-8.7-6.5-4.1-3.6-8-6.5-8.6-6.5-0.6 0-2.3 1.3-3.7 2.9zm-9 19.6l1.4 4.3c0.9 2.6 2.7 5.3 4.9 7 1.9 1.5 3.5 3.5 3.5 4.5 0 0.9-0.2 2.4-0.5 3.2-0.3 0.8-1.1 1.5-1.8 1.5-0.6 0-3.1-2.8-5.4-6.3-2.4-3.4-4.2-6.7-4.2-7.4 0.1-0.6 0.5-2.4 1.1-4zm-124.1 11.3c-0.1-1 0-1.8 0.3-1.8 0.3 0 1.4 0.3 2.3 0.6 1 0.4 1.6 1.3 1.5 2-0.1 0.8-1 1.3-2 1.2-0.9-0.1-1.9-1-2.1-2zm254.9-15.9c-1.3 1-2.2 2.3-2.2 2.8 0.1 0.4 1 0.9 1.9 1 1 0.1 3 0.7 4.5 1.3 1.5 0.6 3 1.7 3.3 2.5 0.2 0.9-0.3 2.7-1.3 4.2-0.9 1.4-2.5 3.8-3.5 5.2-0.9 1.5-1.9 3.1-2.1 3.6-0.1 0.6-2.9 1.3-6.2 1.5-5.6 0.5-5.9 0.7-8.5 5-1.5 2.5-2.8 5.7-2.8 7 0 1.4 3.7 9.9 8.2 18.9 4.5 9.1 9.2 17.2 10.4 18 2.3 1.6 2.3 1.6 1.7-2.4-0.3-2.2-0.8-4.3-1-4.7-0.2-0.4-0.1-0.8 0.3-0.8 0.4 0 2.6 3 4.8 6.7 2.2 3.6 4.9 7.2 6 8 1.1 0.7 4.4 1.5 7.5 1.8 3.6 0.4 5.9 1.2 6.7 2.3 0.7 1 1.2 2.8 1.2 4 0.1 1.2 1.2 3.6 2.6 5.2 1.4 1.8 3.8 3.3 5.7 3.6 2.5 0.5 3.6 0.2 4.5-1.2 0.7-1 1.3-3.2 1.3-4.9-0.1-1.6-1-5-2.1-7.5-1.2-2.4-5.3-7.8-9.3-11.8l-7.1-7.3c0.7-15.3 1.3-20.1 1.7-20.5 0.4-0.5 1.6-0.1 2.5 0.9 1 1 2.7 1.7 3.8 1.5 1-0.1 2.1-1 2.2-2 0.2-1-0.9-2.9-2.2-4.3-2.1-2-3.5-2.5-8-2.5-3.1 0-6.7-0.4-8-1-1.4-0.5-2.5-1.3-2.6-1.7 0-0.4 1.6-3.5 3.6-6.8 2-3.3 4.3-6.8 5.3-7.7 0.9-1 1.3-2.1 0.8-2.5-0.4-0.4-2.2-1.3-4-1.9-2.4-0.8-3.5-2-4.6-5.4-1.2-3.3-2.2-4.5-4.5-5.3-1.7-0.5-3.7-1.5-4.5-2.1-0.9-0.7-2-1.5-2.7-1.9-0.6-0.3-2.1 0.2-3.3 1.2zm-372 28.1c-1.1 0.7-1.5 2.5-1.3 6.3 0.1 3.9 0.9 6.2 3 9.1 1.5 2.1 3.3 4.8 4 6 0.6 1.2 1.4 3.3 1.7 4.6 0.2 1.4 1.3 3.7 2.4 5 1.6 2 2.9 2.5 6.2 2.5 3.1 0 4.4-0.5 5.2-2 0.7-1.1 2.2-2.9 3.4-4 1.3-1.1 2.3-2.7 2.3-3.7 0.1-1-0.4-2-0.9-2.3-0.6-0.2-2.2 0.1-3.6 0.8-2.5 1.2-2.9 1-7.6-4.3-2.7-3-5.5-6.1-6.2-7-0.7-0.8-1.8-3.3-2.6-5.5-0.7-2.2-1.8-4.5-2.4-5.3-0.6-0.7-1.4-1.2-1.6-1.2-0.3 0-1.2 0.5-2 1zm-6.9 28.5c-0.9 1.2-0.8 2.3 0.4 4.5 0.9 1.9 2.5 3.2 4.2 3.6 1.7 0.3 3.1 0 3.5-0.8 0.4-0.7 0.7-1.6 0.8-2 0-0.4-0.6-1.1-1.4-1.5-0.7-0.4-1.9-1.8-2.5-3-0.6-1.2-1.8-2.3-2.5-2.3-0.8 0-1.9 0.7-2.5 1.5zm451.9 43.5c0 1.1 0.6 2 1.5 2 0.8 0 1.8-0.5 2.2-1.1 0.4-0.6 0.1-1.5-0.7-2-0.9-0.4-1.9-0.8-2.3-0.8-0.4-0.1-0.7 0.8-0.7 1.9zm-97.4 3.5c-0.4 0.9 0.3 3.3 1.4 5.5 1.1 2.2 2.4 4.3 3 4.5 0.5 0.3 1.6 0.1 2.5-0.5 1.2-0.8 1.3-1.5 0.4-3.7-0.6-1.5-2-3.8-3.2-5-1.2-1.3-2.5-2.3-2.9-2.3-0.4 0-0.9 0.7-1.2 1.5zm73.1 9.3c-0.4 0.4 0 2 0.8 3.5 0.8 1.5 2 2.6 2.7 2.4 0.7-0.2 1.3-1.1 1.3-2.1 0-1-1-2.4-2.1-3.2-1.1-0.8-2.4-1-2.7-0.6zm-113.1 30c-0.3 0.4 0.6 2.4 1.9 4.5 1.8 2.8 3 3.6 4.5 3.2 1.4-0.3 1.8-1 1.3-2.2-0.3-1-1.6-2.8-2.7-4-1.2-1.3-2.7-2.3-3.3-2.3-0.7 0-1.5 0.4-1.7 0.8zm-418.2 104.5c-2 1.8-4.2 4.6-4.9 6.2-0.6 1.7-2.7 4-4.6 5.2-1.9 1.1-4.4 4.1-5.7 6.5-2 3.9-2 4.5-0.7 6.3 0.9 1.1 2.3 3.3 3.3 4.9 0.9 1.5 2.9 4.8 4.4 7.2 1.7 2.7 4.1 5 6.3 5.9 1.9 0.9 4.7 1.5 6.2 1.5 1.5 0 3.3 0.6 4 1.5 0.9 1.1 1 2.1 0.3 3.5-0.8 1.5-0.6 2.9 0.5 5 0.9 1.8 3.2 3.8 5.7 5 2.4 1.1 6 2.4 8.2 2.8 2.1 0.4 4.1 1.4 4.3 2.2 0.3 0.9-0.9 4.5-2.6 8-1.7 3.6-3.1 7.1-3.1 7.8 0 0.7 0.8 1.2 1.7 1.3 1 0 5.1-2.6 9.3-5.7 4.1-3.1 8.6-6.1 10-6.8 1.3-0.7 2.8-2 3.2-2.9 0.4-0.9 1.7-1.7 2.8-1.7 1.1 0 4 2 6.5 4.3 2.5 2.3 4.5 4.8 4.5 5.5 0 0.7 1 1.9 2.2 2.7 1.3 0.8 2.9 1.1 3.8 0.8 0.8-0.4 2-1.3 2.7-2.2 1-1.3 1.2-0.6 1.2 3.7 0.1 4.4 0.5 5.6 2.7 7.5 1.5 1.2 3.4 3 4.3 3.8 0.9 0.9 3.4 3.8 5.6 6.5 2.2 2.7 8.9 9.3 15 14.7 8.8 7.8 11.9 10 15.5 10.8 3.3 0.7 5.6 0.7 9-0.3 2.4-0.8 6.3-2.8 8.5-4.5 2.2-1.7 5.3-3.3 7-3.4 2.2-0.3 3-0.9 3-2.3 0-1.4-0.9-2.1-3.1-2.5-1.7-0.3-3.8-1.2-4.8-2.1-0.9-0.8-1.7-2-1.7-2.7 0.1-0.7 0.7-1.5 1.6-1.8 0.9-0.3 1.5-1.7 1.5-3.5 0-1.6-0.5-3.9-1-5-0.6-1.1-1.6-2-2.3-1.9-0.7 0-2.1-0.6-3.1-1.3-1.7-1.2-1.7-1.6 0-9.8 0.9-4.6 2-8.9 2.5-9.5 0.5-0.6 1.8 0 3.6 1.6 1.8 1.7 4.5 2.8 7.8 3.2 2.7 0.4 6.2 1.6 7.7 2.7 2.1 1.5 2.8 2.9 2.8 5.5 0 2.3 0.5 3.7 1.5 4 0.8 0.3 2.4 0.1 3.5-0.5 1.1-0.5 2.8-1 3.7-1 1 0 4.8 2 8.5 4.5 3.7 2.5 7.8 4.8 9 5.1 1.3 0.3 3.6-0.4 5.5-1.5 1.8-1.2 3.3-2.4 3.3-2.8-0.1-0.4-0.4-1.3-0.8-1.9-0.4-0.6-4.8-3.8-9.7-7.1-5-3.3-9.7-6.7-10.5-7.6-0.9-1-1.1-1.7-0.5-1.7 0.5 0 3.6 0.9 6.7 2 3.2 1.1 6.3 2.1 7 2.1 0.7 0 1.8-0.7 2.5-1.5 0.9-1.1 1-2.1 0.3-3.6-0.6-1.1-2-2.2-3.3-2.6-1.2-0.3-3.1-1.4-4.2-2.5-1.1-1-3.8-2.2-6-2.5-3-0.5-3.9-1-3.7-2.2 0.2-0.9-0.1-2-0.7-2.4-0.6-0.4-1.1-2.2-1.1-4 0-3.1-0.3-3.4-6.3-5.5-3.4-1.2-7.9-2.3-10-2.3-2.6 0-3.7 0.5-3.7 1.5 0 0.9 0.4 2.4 1 3.5 0.8 1.7 0.6 2-1 2-1.1 0-4.4-1.1-7.3-2.5-2.9-1.3-6-2.4-7-2.5-0.9 0-1.7-0.6-1.7-1.5 0-0.8 0.6-1.7 1.5-2 0.8-0.2 2.8-0.5 4.5-0.5q3 0 3-1.5c0-0.8-1.7-2.2-3.8-3.1-2.7-1.1-5.1-1.4-8.7-0.9-2.8 0.4-6.3 0.9-7.8 1.1-2.5 0.4-2.8 0.1-4-4.1-0.8-3.2-1.9-4.8-3.2-5.1-1.1-0.2-2.8-1.8-3.8-3.4-1.1-1.9-3.1-3.3-5.5-4-2.6-0.8-6.4-0.8-12.7-0.1-7 0.8-9.5 1.5-11 3.2l-2 2c-6.2-4-8.5-5.1-9-5-0.6 0-1.7-0.7-2.5-1.7-0.9-0.9-3.3-2.6-5.5-3.6-2.2-1.1-5.7-2.8-7.8-3.8-3-1.6-4-1.7-5.3-0.7-0.8 0.7-1.5 1.9-1.5 2.7 0.1 0.9-0.4 2.1-1.1 2.8-0.7 0.7-2.4 1.2-3.8 1.3-1.4 0-3.9-0.5-5.5-1-1.7-0.5-3.8-2.1-4.8-3.5-1.3-1.9-2.3-2.4-4-2-1.5 0.4-2.9-0.2-4.3-1.8-1.2-1.2-4.3-5.8-7-10-2.7-4.3-5.5-7.8-6.1-7.8-0.7 0-2.9 1.5-4.9 3.3zm419.5 35.3c0 0.3 0.7 1.1 1.6 1.9 0.8 0.9 2.8 1.5 4.5 1.5 2.3 0 2.9-0.4 2.7-1.7-0.2-1.3-1.3-1.8-4.6-1.9-2.4-0.1-4.3 0-4.2 0.2zm-78.6 5.1c-0.8 0.8-1.4 1.9-1.4 2.4 0 0.5 0.5 2.1 1.1 3.4 0.6 1.6 1.5 2.4 2.5 2 0.9-0.3 1.7 0.3 2 1.5 0.2 1.1 2.2 3 4.2 4.2 2.1 1.1 5.1 2.3 6.8 2.5 1.6 0.2 5 0.4 7.5 0.3 2.4 0 5.5 0.5 6.8 1.2 1.8 1.1 2.7 1.1 4.2 0.1 1.6-1 2.4-1 4.2 0 2.2 1.2 2.1 1.3-1.5 1.5-2.5 0.2-3.7 0.7-3.7 1.7 0 1.1-0.7 1.4-2.3 1.1-1.2-0.3-4.1 0.4-6.5 1.5-2.3 1.1-4.2 2.4-4.2 2.9 0 0.6 1.6 2.7 3.5 4.8 3.3 3.5 3.4 3.9 2 6-0.8 1.2-1.3 2.8-1.1 3.5 0.3 0.7 1.7 1.6 3 2 1.4 0.4 3.1 0.5 3.8 0.3 0.7-0.3 2-1.5 2.9-2.8 1-1.2 1.5-3.2 1.2-4.3-0.3-1.5-1.1-1.9-3.1-1.6-2.3 0.3-2.5 0.2-1.4-1 0.7-0.7 2-1.4 3-1.4 1 0 1.8-0.9 1.9-2.2 0.2-1.2 0.5-2.3 0.8-2.3 0.2 0 2.2 1 4.2 2.2 3.7 2.2 3.8 2.2 7.1 0.3 1.8-1.1 3.2-2.5 3.2-3.2 0-0.7-1.9-2.5-4.3-3.9-4-2.5-4.1-2.7-2-3.5 1.3-0.5 2.6-1.4 2.9-2.1 0.4-0.7-0.4-2-1.7-3.1-1.3-0.9-3.1-1.7-3.9-1.7-0.9 0-6-2.2-11.5-5-5.5-2.7-12.5-5.4-15.5-6-3.1-0.6-7.3-1.4-9.4-1.9-2.9-0.6-4.2-0.5-5.3 0.6zm87.3 29.1c-0.3 0.4 0 1.6 0.8 2.7l1.3 2c1.7-3.1 1.9-4.3 1.5-4.7-0.4-0.5-1.3-0.8-1.9-0.8-0.7 0-1.5 0.4-1.7 0.8zm-289.1 19.9c-1.3 0.3-1.9 1.2-1.8 2.4 0.2 1.1 1.1 2 2 2 1 0 2.3-0.7 3-1.5 0.7-0.9 1-2 0.8-2.6-0.3-0.5-0.9-0.9-1.3-0.8-0.4 0-1.6 0.3-2.7 0.5zm278 11.4c-2.7 2.2-4.9 4.7-4.7 5.5 0.1 0.8 1.4 3.1 2.9 5.2 1.4 2.1 4 5.2 5.7 7q3.1 3.3 5.8 3.3c1.5-0.1 5.4-1 8.5-2.2 4.7-1.7 6.2-1.9 8-1 1.3 0.6 3.2 2.6 4.3 4.4 1.1 1.8 2.6 5.3 3.4 7.7 0.8 2.5 1.9 6.5 2.5 8.8 0.7 2.6 1.6 4.2 2.6 4.2 0.8 0 2-1.2 2.5-2.7 0.8-1.9 0.8-4.5 0.1-8.3-0.5-3-2-8.2-3.2-11.5-1.7-4.6-3.8-7.5-9.3-13-3.9-3.8-8.9-7.9-11.1-8.9-2.2-1-6.1-2.1-8.5-2.3-4.1-0.3-5 0-9.5 3.8zm-34 25.1c-1.8 0.6-2.9 1.6-2.8 2.7 0.1 0.9 1.2 2.5 2.3 3.6 1.2 1.1 3.5 2 5.1 2 1.6 0 3.4-0.6 3.9-1.5 0.5-0.8 0.7-2.4 0.3-3.5-0.3-1.1-0.8-2.2-1.2-2.6-0.3-0.3-1.5-0.9-2.6-1.2-1.1-0.2-3.4 0-5 0.5zm20 0.6c-0.3 1 0.1 5.1 1 9.2 1.1 5 2.6 8.8 4.6 11.3 1.6 2.1 2.9 4 2.9 4.2 0 0.3-1 0.6-2.3 0.6-1.2 0-4.1-1.4-6.5-3-2.3-1.7-4.7-4-5.2-5.1-0.8-1.6-1.4-1.8-3-1-1.1 0.6-1.8 1.4-1.6 1.8 0.2 0.4 0 4.6-0.6 9.2-0.8 7.2-0.7 8.9 0.6 10.8 0.9 1.2 2.6 2.7 3.8 3.2 1.3 0.5 5.6 2.4 9.8 4.1 6.6 2.8 8.1 3.1 13 2.5 3-0.4 7.3-1.5 9.5-2.5 2.2-0.9 4.5-2.4 5.1-3.1 0.7-0.8 1.9-4.2 2.8-7.5 0.8-3.3 1.5-8.1 1.6-10.7 0-2.6-0.6-6.2-1.4-8-0.7-1.8-2.7-4.5-4.5-6-2-1.8-5.1-3.1-8.9-3.8-3.1-0.6-7.5-1.8-9.6-2.8-2.1-0.9-4.6-2.5-5.5-3.4-0.9-1-2.4-1.8-3.3-1.8-1 0-2 0.8-2.3 1.8zm-325.9 41c-0.3 0.4 0.3 2.3 1.3 4.2 1.1 2.1 2.6 3.6 3.9 3.8 1.2 0.1 2.2 0 2.2-0.3 0-0.2-0.8-1.9-1.7-3.7-0.9-1.8-2.1-3.6-2.7-4-0.6-0.4-1.4-0.7-1.8-0.7-0.4-0.1-1 0.3-1.2 0.7zm5.3 13.2c-0.6 1-1.1 2.8-1 4 0 1.1 1.4 6 3 10.8 1.6 4.8 5.5 13.5 8.5 19.2 3 5.8 6.9 12.1 8.5 14 2.8 3.4 3 3.5 4.7 1.8 1.8-1.6 1.8-1.8-0.9-5.7-1.5-2.2-2.7-4.7-2.7-5.5 0.1-0.8-0.8-3.4-1.9-5.8-1.1-2.3-3.4-8.1-5.2-12.8-1.7-4.6-4.5-10.9-6.1-14-1.6-3-2.9-6-2.9-6.7 0.1-0.7-0.6-1.3-1.4-1.3-0.8 0-2 0.9-2.6 2zm337.2 7c-2.6 1.2-4.3 2.6-4.3 3.5 0.1 0.8 1.4 2.5 2.9 3.6 2.2 1.7 3.6 2 7 1.5 2.4-0.3 5.2-1 6.3-1.6 1.2-0.6 1.9-1.8 1.7-3.2-0.1-1.3-1.3-2.7-2.7-3.4-1.4-0.6-3.4-1.4-4.5-1.7-1.1-0.3-4 0.3-6.4 1.3zm114 0.8c-1.1 1-3.1 5.9-4.5 11-1.5 5.1-2.4 9.9-2.1 10.7 0.2 0.9 1.5 1.5 2.7 1.6 1.3 0 3.8-1.6 5.8-3.6 3-3.1 3.5-4.4 3.9-9.3 0.2-3.1 0.1-6.9-0.3-8.4-0.3-1.5-1.3-3-2.1-3.2-0.8-0.3-2.4 0.3-3.4 1.2zm-166.8 36c-0.3 1-0.1 3.4 0.5 5.5 0.7 2.1 2.1 4.2 3.2 4.7 1.5 0.8 3.1 0.5 6.5-1 2.4-1.1 4.5-2.6 4.5-3.3 0-0.8-1.9-2.2-4.1-3.3-2.3-1-4.7-2.4-5.3-3.2-0.6-0.7-1.9-1.2-2.9-1.2-1 0-2.1 0.8-2.4 1.8zm16.8 4.9c-0.3 0.8-0.1 2 0.6 2.6 0.7 0.7 1.9 0.9 2.7 0.5 0.9-0.4 1.5-1.4 1.4-2.1 0-0.8-1-1.7-2.1-2-1.2-0.3-2.2 0.1-2.6 1zm158.9 11.3c0 1.1 0.3 2.2 0.7 2.5 0.4 0.2 1.4 0 2.3-0.4 0.9-0.6 1.2-1.5 0.7-2.5-0.4-0.8-1.4-1.6-2.2-1.6-0.9 0-1.5 0.9-1.5 2zm-480.7 5.8c-0.6 0.5-1.9 3.5-2.7 6.8-0.9 3.3-1.3 6.3-0.9 6.8 0.4 0.4 1.7 0.6 2.8 0.4 1.1-0.1 2.5-1.5 3.2-3 0.7-1.6 1.1-4.7 0.8-7.3-0.3-2.4-0.9-4.5-1.3-4.4-0.4 0-1.2 0.3-1.9 0.7zm17.7 7c-0.9 0.3-1.9 1-2.3 1.6-0.4 0.6-0.7 1.5-0.7 1.9 0 0.4 1 0.7 2.2 0.7 1.3 0 2.7-0.3 3.3-0.7 0.5-0.4 1.1-1.5 1.2-2.5 0.2-1-0.3-1.7-1-1.7-0.7 0.1-1.9 0.4-2.7 0.7zm468.1 6.5c-0.6 0.7-0.9 2-0.6 3 0.2 1 0.7 1.7 1 1.7 0.2 0 1.4-0.4 2.5-1 1.1-0.5 2-1.9 2-3 0-1.3-0.7-2-1.9-2-1.1 0-2.4 0.6-3 1.3zm-17.6 1.2c-1.2 1.2-1.3 2.2-0.5 4.8 0.6 1.8 1.4 3.7 1.9 4.2q1 1 2.6-0.5c0.8-0.8 1.5-2.5 1.5-3.7 0-1.2 0.4-2.3 1-2.3 0.5 0 1-0.6 1-1.5 0-0.8-0.7-1.7-1.5-2-0.9-0.2-2.2-0.5-3-0.5-0.7 0-2.1 0.7-3 1.5zm-451.7 4.1c-1 1.2-1.1 2-0.2 3.3 0.6 0.9 2.9 2.5 5.1 3.6 2.3 1.1 4.4 2.4 4.7 2.8 0.3 0.4-0.4 2-1.5 3.5-1.6 2.1-2 3.6-1.6 6.2 0.6 3.5 0.5 3.6-6.4 8-3.9 2.5-8.1 5.7-9.4 7-1.2 1.4-2.8 4.1-3.4 6-1 3.2-0.8 4.2 2 10 1.7 3.6 5.1 8.7 7.5 11.3 2.4 2.6 4.4 5.2 4.4 5.7q0 1-2.5 0c-2.1-0.8-2.7-0.6-3.5 1-0.6 1.1-1 3.7-1 5.8 0 2.1 0.9 5.4 2 7.5 2 3.7 2 3.7 0 3.7-1.1 0-3.3-1.5-4.8-3.5-1.5-2-3.1-3.5-3.5-3.5-0.4 0-2.5 1.7-4.7 3.8-2.2 2.1-4.1 4.6-4.2 5.7-0.3 1.5 0.3 2 2.2 2.2 1.4 0.1 3.4 1.4 4.7 3 1.3 1.6 2.3 3.9 2.3 5.1 0 1.7 0.7 2.4 3 2.7 1.6 0.3 3 1 3 1.5 0 0.6-1.4 1.5-3 2q-3 1-3 3c0 1.5 1.5 2.8 5.7 4.7 3.2 1.5 6 2.8 6.3 3 0.2 0.2-0.3 1.1-1.3 2.1-1.4 1.4-1.6 2.3-0.7 4.5 0.5 1.5 0.8 3.1 0.6 3.5-0.3 0.4 0.3 0.8 1.2 0.9 0.9 0.1 3.9-0.5 6.7-1.4 2.7-0.8 5.9-1.2 7-0.9 1.1 0.4 2.9 0 4-0.8 1.1-0.8 2.6-1.5 3.5-1.5 0.8 0 2.5-0.8 3.8-1.8 2.1-1.5 2.3-2.3 1.8-5.5-0.3-2.1-1.5-4.7-2.6-5.8-1.4-1.3-3.4-2-6.3-2-2.6 0-4.8 0.6-5.7 1.5-1.4 1.4-1.3 1.8 0.2 3.3 0.9 1 1.7 2.1 1.7 2.5 0.1 0.4-1.6 0.5-3.7 0.1-2-0.3-4.3-1.1-5-1.7-0.7-0.7-1.3-2.4-1.3-3.9 0.1-2.2 0.4-2.6 1.8-2.1 1 0.3 2.6 0.7 3.5 1 1 0.2 2.6-0.5 3.5-1.4 1-1 2.6-2.3 3.5-2.8 1-0.5 2.4-2.8 3.2-5 1.2-3.5 1.8-4 4.7-4.2 1.9-0.2 4 0.3 4.7 1 1 0.9 1.2 2.9 0.6 8.2-0.3 3.9-0.4 8.1 0 9.3 0.3 1.2 1.5 2.5 2.6 2.7 1.1 0.3 2.9 0.1 4-0.5 1.1-0.5 3.1-2.8 4.5-5 1.9-3 3.4-4.2 6.5-5 2.2-0.5 4-1.4 4-2 0-0.5 0-1.2 0-1.5 0-0.2 1.8-2.5 4-5 2.2-2.4 5.3-7.3 7-10.7 1.6-3.4 3-7.3 3-8.5 0-1.2 0.4-3.2 1-4.3 0.7-1.4 0.6-2.7-0.5-4.7-0.8-1.5-1.2-3.1-0.8-3.5 0.3-0.4 1.9-0.8 3.4-0.8 1.6 0 3.8-0.9 4.9-2 1.1-1.1 1.7-2.6 1.5-3.5-0.3-0.8-1.8-1.7-3.3-2.1-1.5-0.4-3.4-0.1-4.2 0.5-0.9 0.6-2.2 1.4-3 1.7-0.9 0.3-2.8 1.2-4.3 2-2.4 1.3-2.9 1.3-4-0.1-0.7-0.9-2.2-1.5-3.3-1.5-1.1 0-2.6 0.6-3.2 1.3-0.9 1-1.5 0.9-3-0.5-1.1-1.1-2.9-1.7-4.7-1.5-2.3 0.2-3.1 0.8-3.3 2.5-0.1 1.5-0.8 2.2-1.9 2-1-0.2-2.2-1.7-2.8-3.7-0.6-1.8-2.7-4.9-4.8-6.7-2-1.8-4.5-3.4-5.5-3.5-0.9 0-2.1 0-2.5 0-0.4 0.1-1.9-1-3.2-2.4-2.2-2.1-3.2-2.4-7-2-3.6 0.4-4.5 0.2-4.5-1 0-0.8 1.1-1.9 2.5-2.5 1.3-0.5 2.5-1.7 2.4-2.7 0-1-1-3.4-2.2-5.4-2.2-3.6-2.2-3.7-0.4-5.5 1.1-1.1 1.6-2.6 1.3-3.6-0.4-1-0.2-1.8 0.4-1.8 0.5 0 1.7-2.1 2.5-4.7 0.8-2.6 1.5-6.6 1.5-8.8 0-2.2-0.3-4.3-0.8-4.7-0.4-0.4-1.9 0-3.2 0.8-2.1 1.4-2.7 1.4-3.3 0.3-0.4-0.8-0.7-2.4-0.7-3.6 0-1.7-0.6-2.3-2.4-2.3-1.3 0-3 0.8-3.8 1.6zm13.4 50.2c0.7-0.4 2.2-0.7 3.3-0.5 1.3 0.2 2.3 1.4 3 4 0.7 2.8 0.7 4-0.3 5-1 1-1.8 0.8-4-0.9-1.5-1.1-2.9-3.1-3-4.5-0.2-1.3 0.2-2.7 1-3.1zm11.3 11.2c1.6-1.1 3.3-2 3.7-2 0.4 0 0.8 1.2 0.8 2.5 0 1.5-1.5 4.1-3.5 6.3-1.9 2.1-3.5 4.2-3.5 4.7-0.1 0.6 0.6 1.7 1.5 2.5 0.8 0.9 1.5 2.1 1.5 2.8 0 0.7-1.4 1.9-3 2.7-1.7 0.9-4.7 1.5-6.8 1.4-2 0-4.8-0.4-6-0.7-2.3-0.7-2.3-0.7 1.3-4.2 2.3-2.2 4.6-3.5 6.3-3.5 1.9 0 2.8-0.5 3-2 0.1-1.1-0.7-2.9-1.8-4-1.2-1.1-2.1-2.5-2.1-3.2 0.1-0.7 1.3-1.3 2.8-1.3 1.5 0 4.1-0.9 5.8-2zm-16.5 28c0-1.9 0.5-3 1.4-3 0.9 0 1.4 1 1.3 2.7-0.1 1.5-0.8 2.8-1.5 3-0.8 0.2-1.2-0.8-1.2-2.7zm431.1-87.5c-0.9 1.2-0.6 2 1.3 3.8 1.4 1.2 2.5 3.3 2.5 4.5 0.1 1.2-0.4 2.5-0.9 2.7-0.6 0.3-1.7-0.4-2.5-1.5-0.9-1.1-2.2-2-3-2-0.8 0-2.6 1.2-4 2.5-1.4 1.4-2.3 3.2-2 4 0.4 1.2 1.3 1.4 4.5 0.8 3.4-0.7 4-0.5 4 1 0 1-0.5 2-1 2.2-0.6 0.3-1 1.4-1 2.5 0 1.2 1.1 2.6 2.7 3.4 1.5 0.8 3.8 2.8 5 4.5 1.4 1.9 3.4 3.3 5.3 3.6 1.6 0.3 3.2 1 3.5 1.5 0.2 0.6 0 1-0.5 1-0.6 0-1 0.7-1 1.5 0 0.9 0.8 1.8 1.7 2 1 0.3 2.2 1.5 2.8 2.8 0.5 1.2 1.6 2.2 2.3 2.2 0.8 0 2 1.8 2.8 4 0.7 2.2 1.9 4.4 2.6 4.8 0.7 0.4 1.5 0.7 1.8 0.8 0.2 0 1-0.7 1.7-1.5 1-1.3 1-2.2-0.2-4.8-0.9-1.8-1.6-3.6-1.5-4 0-0.4 1.4-0.7 3.2-0.7 1.9 0 3.8 0.7 4.5 1.7 1.1 1.6 1.2 1.5 1.2-0.5 0.1-1.2-0.6-3.8-1.4-5.8-0.9-1.9-2-3.7-2.5-4-0.6-0.2-2 0.3-3.1 1.3-2 1.7-2.1 1.7-3.2-0.3-0.6-1.1-2.1-2.9-3.3-4-1.1-1.1-3.4-2.3-5-2.6-1.6-0.4-3.8-1.4-4.9-2.2-1.9-1.4-2-1.6-0.3-3.3 1-1 2.2-3.4 2.6-5.4 0.6-3 1.2-3.5 4.2-4 1.9-0.3 4-0.9 4.7-1.3 0.7-0.3 1.3-1.3 1.3-2.2 0-0.8-0.9-1.9-2-2.5-1.1-0.5-2.8-1-3.8-1-0.9 0-3 0.9-4.5 2-1.5 1.1-3.6 2-4.7 2-1.7 0-2-0.6-2-4 0-2.2-0.7-4.6-1.5-5.5-0.9-0.8-2.4-1.5-3.4-1.5-1.1 0-2.4 0.7-3 1.5zm-514.7 5.4c-1 1-1.7 2.7-1.6 3.7 0.1 1.1 1.4 2.5 2.9 3.2 1.5 0.7 3.1 1.3 3.5 1.2 0.4 0 0.8-1.2 0.8-2.7 0-1.5-0.3-3.8-0.5-5-0.3-1.2-1.1-2.3-1.9-2.3-0.7 0-2.2 0.9-3.2 1.9zm542.8 7.1c-1 1.7-2.3 3-3 3-0.7 0-1.2 1.2-1.2 2.5 0 1.4 1 3.6 2.1 4.8l2.2 2.2c1.3-3.4 1.4-5.7 1-7.2-0.5-2-0.4-2.6 0.5-2 0.7 0.4 2-0.1 3.2-1.3 1.1-1.1 1.7-2.6 1.5-3.5-0.3-0.8-1.4-1.5-2.6-1.5-1.2 0-2.7 1.2-3.7 3zm-451.8 12c0.3 0.6 0.1 1-0.4 1-0.6 0-1 0.9-1 2 0 1.1 0.7 2.4 1.5 2.8 0.9 0.4 2 0.3 2.5-0.3 0.7-0.6 0.7-1.9 0-3.7-0.6-1.5-1.5-2.8-2.1-2.8-0.6 0-0.9 0.5-0.5 1zm466.1-0.3c-0.5 0.4-0.8 1.5-0.7 2.5 0.1 1 0.8 2.1 1.7 2.3 0.8 0.3 2.4 0.5 3.5 0.5 1.1 0 2.2-0.6 2.5-1.5 0.2-0.8-0.1-2.2-0.8-3-0.7-0.9-2.2-1.5-3.3-1.5-1.2 0-2.5 0.3-2.9 0.7zm-453.1 18.6c-0.3 0.7-0.3 1.6 0.2 2.1 0.5 0.5 1.4 0.6 2.1 0.2 0.7-0.3 1.3-1.2 1.3-2.1 0-0.8-0.7-1.5-1.5-1.5-0.8 0-1.7 0.6-2.1 1.3zm23 5c-1.8 0.6-2.8 1.5-2.6 2.6 0.1 1 1.9 2.2 4.7 3.1 3.6 1.2 4.7 1.3 5.5 0.3q0.9-1.2 0-3.3c-0.6-1.1-1.9-2.3-2.9-2.8-1-0.5-3-0.5-4.7 0.1zm434.1 2c-1.7 0.5-3.6 1.5-4.3 2.1-0.7 0.6-1.3 2.3-1.3 3.6 0 1.4 0.6 3.1 1.3 3.8 0.7 0.7 1.8 1.3 2.5 1.3 0.7-0.1 1.6-1.1 1.9-2.3 0.4-1.2 1.8-3.2 3.1-4.3 1.5-1.2 2.2-2.6 1.8-3.7-0.3-1-0.9-1.7-1.3-1.7-0.4 0.1-2.1 0.6-3.7 1.2zm12 0.4c-0.5 0.4-0.8 1.7-0.7 3 0.1 1.3 0.8 2.6 1.7 2.8 0.8 0.3 3.2 0.5 5.2 0.5 2.1 0 4.4-0.4 5.3-0.9 1.1-0.6 1.2-1.4 0.5-2.6-0.7-1.2-1.7-1.5-3.7-1.1-1.9 0.4-3.3 0.1-4.3-0.9-0.9-0.8-1.9-1.5-2.4-1.5-0.4 0-1.2 0.3-1.6 0.7zm-25.2 10.6c0.3 2.4 1.3 4.7 2.2 5.2 1 0.6 2.9 2.1 4.4 3.4 1.4 1.2 3.7 2.5 5.1 2.8 1.3 0.4 3.1 0.2 4-0.4 0.8-0.5 1.6-1.9 1.7-3.1 0.2-1.3-0.4-2.4-1.5-2.8-0.9-0.4-2.9-0.2-4.2 0.3-1.4 0.6-3.2 0.7-4 0.4-0.9-0.3-1.6-1.9-1.7-3.6-0.2-1.7-1.2-3.7-2.5-4.8-1.3-0.9-2.7-1.7-3.2-1.7-0.5 0-0.7 2-0.3 4.3zm44.7 5.7c0 1.1 0.3 2.3 0.7 2.5 0.4 0.3 1.6-0.3 2.5-1.2 1-1 1.4-2.1 1-2.5-0.4-0.5-1.5-0.8-2.5-0.8-1.1 0-1.7 0.8-1.7 2zm-16.6 1.8c-0.4 0.3-0.7 1.6-0.6 2.9 0.1 1.3-0.3 3.2-0.8 4.3-0.9 1.7-0.6 2.2 1.7 3.1 2.1 0.7 3 0.7 3.5-0.3 0.4-0.7 0.8-2.8 0.8-4.8 0-2.4-0.6-3.8-2-4.7-1-0.6-2.3-0.9-2.6-0.5zm-8.8 12c-0.3 0.4 0.1 1.6 0.8 2.7 1.1 1.6 1.7 1.8 2.8 0.8 1-1 1-1.5-0.2-2.8-0.9-0.8-1.8-1.5-2.2-1.5-0.4 0-1 0.4-1.2 0.8zm9.1 2.9c-1.1 0.2-1.6 1.1-1.5 2.5 0.2 1.2 0.8 2.3 1.5 2.5 0.7 0.2 2.2-0.6 3.3-1.7 1.1-1.1 1.7-2.4 1.5-3-0.3-0.5-1.1-0.9-1.8-0.8-0.7 0-2 0.2-3 0.5zm12.6 24.1c-0.3 1-0.3 2.8 0.1 4 0.3 1.3 1.2 2.1 2.1 2 0.9-0.1 2.4-1.5 3.3-3 1.5-2.5 1.5-2.9 0.2-3.8-0.9-0.5-2.3-0.9-3.3-0.9-1-0.1-2 0.7-2.4 1.7zm-529.2 15.3c-0.6 1.1-1.1 2.6-1.1 3.4 0 0.9 0.9 1.5 2 1.5 1.1 0 2.4-0.9 3-2 0.5-1.1 0.9-2.1 0.7-2.2-0.1-0.2-0.9-0.9-1.8-1.5-1.3-0.9-1.8-0.8-2.8 0.8zm505 124.4c-0.5 1.5-1 3.3-1 4.1-0.1 0.8 0.1 2.1 0.4 2.9 0.2 0.9 1.4 1.5 2.5 1.5 1.4 0 2.1-0.8 2.6-3.2 0.3-1.8 0.4-4.2 0.2-5.3-0.2-1.1-1.1-2.1-2-2.3-1.1-0.2-2.1 0.7-2.7 2.3zm-1.4 42.8c-0.3 0.7-0.1 2 0.4 3 0.5 1 1.8 1.7 2.9 1.7 1.1 0 2.2-0.6 2.5-1.5 0.2-0.8 0.2-2.1 0-3-0.3-0.8-1.6-1.5-3-1.5-1.3 0-2.6 0.6-2.8 1.3zm75.3 55.4c-1.4 1-2.9 2.2-3.3 2.8-0.4 0.6-0.7 1.8-0.7 2.8 0 1.2 0.8 1.7 2.5 1.7 1.3 0 3.5-0.5 4.7-1.1 1.3-0.6 3-1.8 4-2.7 1.3-1.2 1.5-2.1 0.7-3.4-0.5-1-1.9-1.8-3.2-1.8-1.2 0-3.4 0.8-4.7 1.7zm-220.2 13.9c-0.7 0.8-1.1 1.5-0.8 1.6 0.2 0 1.5 0.2 2.7 0.4 1.3 0.2 2.3 0.2 2.3-0.1 0-0.2-0.3-1.1-0.5-2-0.3-0.8-0.9-1.5-1.4-1.5-0.5 0-1.5 0.7-2.3 1.6zm225.7 1.6c-1.1 0.6-2.3 1.6-2.7 2.2-0.4 0.6-0.3 1.8 0.2 2.6 0.7 1.2 1.5 1.3 3.6 0.5 1.4-0.5 3.2-1.8 3.8-2.7 0.8-1.4 0.7-2-0.4-2.8-0.9-0.5-1.8-0.9-2-0.9-0.3 0.1-1.4 0.6-2.5 1.1zm-19.5 5c-0.8 0.7-1.3 2.7-1.2 4.8 0.1 1.9 0.4 4.6 0.7 5.8 0.3 1.4 1.2 2.2 2.5 2.2 1.1 0 2.2-0.6 2.5-1.5 0.2-0.8 1.3-1.5 2.2-1.5 1 0 2.4 1.2 3.1 2.7 0.8 1.6 1.1 3.3 0.8 3.8-0.3 0.6-1 3.6-1.6 6.8-0.6 3.2-1.9 6.9-3 8.2-1.1 1.4-1.8 3-1.5 3.5 0.2 0.6 1.1 1 2 1 0.8 0 2.8-0.6 4.5-1.5 2.4-1.2 3.1-2.3 3.7-5.7 0.3-2.3 1.6-5.1 2.7-6.1 1.5-1.4 2.9-1.8 5.1-1.3 1.6 0.4 3.9 0.7 5 0.7 1.1 0 3-1.3 4.2-2.8 1.2-1.5 2.1-3.4 2-4.3-0.2-1-1.3-1.4-3.7-1.2-2 0.2-4.2 0.5-5 0.8-1 0.2-2.1-0.8-3-2.8-1.3-2.6-2.7-3.6-8-5.5-3.6-1.2-7.7-3.4-9-4.7-1.4-1.4-2.8-2.5-3.1-2.5-0.3-0.1-1.2 0.5-1.9 1.1zm-150.1 28.7c-3 1.4-7.1 3.3-9 4-1.9 0.8-3.9 1.3-4.4 1.2-0.6-0.2-4.2-0.4-8-0.7l-7-0.4c1.3 6.1 1.1 7 0.2 7-0.7 0-2.1-0.7-3.2-1.5-1.1-0.8-2.6-1.5-3.3-1.5-0.7 0-1.7 0.9-2.2 2-0.7 1.5-0.6 3 0.4 5.3 0.7 1.8 1.1 4.4 0.7 6-0.6 2.4-0.2 2.9 2.6 4 1.9 0.8 3.8 2.5 4.7 4.5 0.9 1.8 3.3 4.4 5.3 5.8 2.1 1.4 6.9 4.5 10.8 7 3.8 2.5 8.5 4.9 10.5 5.4 1.9 0.5 4.7 1.2 6.2 1.5 1.5 0.3 4.5 2.1 6.5 4 2.1 1.9 4.6 3.5 5.5 3.5 1 0 2-0.6 2.3-1.5 0.2-0.8 0.5-3 0.5-5 0-3 0.2-3.3 1.7-2.6 1 0.5 3 2.9 4.5 5.5 1.5 2.6 3.8 4.9 5 5.3 1.4 0.4 3.6-0.2 6-1.5 2.1-1.2 4.8-2.1 6-2.1 1.3 0.1 2.8 0.1 3.5 0 0.7 0 1.3-1.2 1.3-2.6 0-1.3 0.4-2.7 1-3 0.5-0.2 2.3 0.7 4 2 1.6 1.4 3.5 2.6 4.2 2.6 0.7 0 2.3-1 3.5-2.3 1.2-1.2 2.2-2.7 2.2-3.3 0-0.5 0.8-1.7 1.8-2.7 1-1 3.6-2 5.8-2.4 2.2-0.3 4.8-1 5.7-1.5 1-0.5 2-2.3 2.4-4.1 0.3-1.8 1.5-5.7 2.6-8.8 1.9-5.2 1.9-5.7 0.4-10-1-2.4-1.4-4.8-0.9-5.3 0.4-0.5 2.2-0.4 4 0.2 2.7 0.9 3.5 0.9 4.5-0.4 0.7-0.9 2.2-1.5 3.3-1.5 1.1 0.1 2.5-0.5 3.2-1.2 0.7-0.7 1.1-1.9 0.8-2.8-0.2-0.8-1.6-2.2-3-3.2-1.4-1-3.9-1.8-5.5-1.8-1.7 0-4.4-0.9-6-2.1l-3-2.1c-5.1 3.2-8 4.2-9.8 4.2-1.8 0-4.2-0.6-5.5-1.4-1.2-0.8-4-1.6-6.2-1.7-2.2-0.2-7.4 0-11.5 0.5-5.7 0.6-8.1 0.5-9.9-0.5-2-1.2-2.7-1.1-5.5 0.4-2.5 1.4-3.3 1.6-4 0.6-0.7-1-1.6-1.1-4-0.1-1.7 0.7-3.9 1.2-4.9 1.2-0.9 0-2.7-1.1-4-2.5-1.3-1.5-3.2-2.5-4.7-2.4-1.4 0-5 1.3-8.1 2.8zm33.5 48.4c0.4-0.7 1-1.3 1.4-1.3 0.4 0 1.2 0.6 1.9 1.5 1 1.3 1 1.7-0.3 2.3-0.8 0.4-2 0.3-2.6-0.3-0.6-0.5-0.7-1.5-0.4-2.2zm129.1-37.6c-0.5 0.4-0.8 1.4-0.7 2.3 0 0.8 0.7 2.1 1.4 2.8 1 1 1.5 1 2.5-0.2 0.7-0.9 1.2-2.3 1-3.3-0.1-1-1-1.9-1.8-2-0.8-0.2-1.9 0-2.4 0.4zm-236.3 3.8c-0.7 0.9-0.9 2.5-0.5 3.8 0.4 1.2 1.7 3.5 3 5 1.2 1.5 2.9 2.7 3.8 2.7 0.8 0 1.9-0.9 2.5-2 0.5-1.1 1-2.7 1-3.7 0-1-0.8-2.8-1.7-4-1-1.2-3-2.4-4.4-2.8q-2.5-0.6-3.7 1zm241.5 5.3c-1 2.1-1.5 4.1-1 4.6 0.4 0.4 1.8 0.5 3 0.2 1.3-0.3 2.6-1.7 3.1-3.3 0.5-1.5 0.7-3.3 0.5-4-0.2-0.7-1.1-1.3-2.1-1.2-1 0-2.5 1.5-3.5 3.7zm-582.1 8.7c-0.4 0.9-0.6 2.1-0.6 2.8 0 0.7 0.3 1.8 0.7 2.5 0.6 0.9 1.6 1 4 0.2 2.1-0.6 3.3-1.6 3.3-2.7 0-1-0.6-2.3-1.3-3-0.7-0.7-2.2-1.3-3.4-1.3-1.2 0-2.4 0.7-2.7 1.5zm555.9 9.3c-0.4 1.5-0.3 4.3 0.1 6.2 0.4 2 2.2 5.2 4.1 7.3 2.4 2.7 3.3 4.7 3.3 7.2 0 3.1-0.5 3.7-3.5 5-2 0.9-3.8 2.1-4.2 2.8-0.4 0.7 0.8 2.3 3 4 2 1.5 3.7 3.2 3.7 3.7 0 0.6-0.8 1-1.8 1-0.9 0-2.9-0.7-4.2-1.4q-2.5-1.4-4.3-0.5c-1.4 0.8-1.7 2.3-1.7 7.4 0 3.6-0.5 7.7-1 9-0.8 2.1-0.6 3.1 1.2 5.3 1.2 1.5 2.7 3.1 3.2 3.5 0.6 0.4 2.4 0.7 4.1 0.7 1.7 0 3.6-0.5 4.3-1.2 0.7-0.7 1.2-1.6 1.2-2 0-0.4-0.9-1-2-1.3-1.2-0.3-2-1.3-2-2.5 0-1.1 0.6-2.2 1.5-2.5 0.8-0.2 2 0.2 2.7 1.1 0.7 0.8 1.7 1.4 2.2 1.2 0.5-0.1 1-1 1.2-2 0.2-1-0.1-2-0.6-2.3-0.6-0.2-1-1.5-1.1-2.7 0-1.2 1.1-3.8 2.5-5.8 1.4-1.9 3.1-4.6 3.9-6 0.8-1.3 2.2-6 3.3-10.3l1.9-7.8-5-3.7c3.4-3.6 4.5-5.2 4.6-5.9 0-0.7-1-1.8-2.3-2.4-1.7-0.8-3-0.8-4.6 0-1.9 1-2.2 0.9-2.2-0.9 0-1.1-1.2-3.1-2.5-4.5-1.6-1.5-3.7-2.5-5.5-2.5-2.3 0-3 0.6-3.5 2.8zm-187.5 5.4c-0.8 0.7-1.3 1.7-1.2 2.3 0.1 0.6 1 1.6 2 2.3 0.9 0.6 2.3 1.2 3.2 1.2 0.8 0 2.9 1.6 4.7 3.5 1.8 2 3.6 3.6 4 3.6 0.4 0 1.3-0.6 2-1.3 0.9-0.9 1-2 0.3-4-0.6-1.5-1.8-3.1-2.8-3.4-0.9-0.4-2.6-1.5-3.7-2.4-1.1-1-3.2-2.1-4.5-2.4-1.5-0.4-3.2-0.1-4 0.6zm19.1 10.6c-0.7 0.4-1.1 1.6-0.9 2.7 0.1 1.1 1.2 2.2 2.3 2.4 1.2 0.2 2.3-0.4 2.7-1.5 0.5-1.1 0.3-2.4-0.5-3.2-0.7-0.7-1.5-1.2-1.7-1.2-0.3 0-1.1 0.4-1.9 0.8zm-418.9 1.5c0.3 0.7-0.3 3.3-1.3 5.7-1.1 2.5-2 5.1-2 5.8 0.1 0.7 1.1 1.9 2.3 2.7 1.3 0.9 4.3 1.6 6.8 1.6 2.4 0 5.4-0.6 6.5-1.4 1.9-1.4 1.9-1.4-0.8-4-1.5-1.5-3.5-2.7-4.5-2.7-1.3 0-1.7-0.7-1.4-3.2 0.2-1.8-0.3-3.8-1-4.6-0.7-0.7-2.2-1.2-3.2-1.2-1.2 0-1.7 0.5-1.4 1.3zm424.8 5.7c-0.8 1.6-0.7 2.2 0.7 2.9 1 0.5 2.3 0.7 3 0.5 0.7-0.2 1.3-1.5 1.3-2.9 0-1.8-0.6-2.5-2-2.5-1.1 0-2.4 0.9-3 2zm-47.4 1.5c-0.4 0.9-0.4 2.2-0.1 3 0.2 0.9 1.4 1.5 2.5 1.5 1.1 0 2.2-0.6 2.5-1.5 0.2-0.8 0.2-2.1 0-3-0.3-0.8-1.4-1.5-2.4-1.5-1.1 0-2.2 0.7-2.5 1.5zm60.2 4.2c-0.8 0.2-1.9 1.3-2.2 2.4-0.5 1.5 0.9 3.2 6.4 7.9 4 3.5 8.4 6.3 10.2 6.7 1.8 0.4 4.3 1.3 5.5 2 1.3 0.7 2.5 1 2.7 0.6 0.3-0.4-0.4-2.2-1.5-4-1.1-1.8-3.2-4-4.7-5-1.5-1-4.7-3.9-7.2-6.5-2.5-2.6-5.2-4.7-6-4.6-0.9 0-2.3 0.3-3.2 0.5zm29.7 22.1c-0.3 1-0.2 2.1 0.2 2.5 0.4 0.4 1.6 0.5 2.5 0.3 1-0.3 1.9-1.2 2-2 0.1-0.7-0.5-1.6-1.5-2-0.9-0.3-1.9-0.6-2.1-0.6-0.3 0-0.7 0.8-1.1 1.8zm132.9 6.7c-0.8 2-1.1 4.2-0.7 5.1 0.4 0.8 1.3 1.7 2 2 0.7 0.2 2.2-0.5 3.3-1.6 1.1-1.1 2-3 2-4.2 0-1.2-0.6-2.8-1.3-3.5-0.7-0.7-1.8-1.3-2.5-1.3-0.7 0-2 1.6-2.8 3.5zm-195.1 2c0.4 0.9 0.7 1.8 0.7 2 0 0.3 0.6 0.5 1.5 0.5 0.8 0 1.7-0.6 2-1.4 0.2-0.7 0.1-1.6-0.3-2-0.4-0.3-1.6-0.6-2.6-0.6-1.4 0-1.7 0.5-1.3 1.5zm174.3 2.5c-0.3 0.6-1.7 1-3.1 1-1.5 0-2.7 0.7-3.1 1.8-0.3 1.1 0.5 2.7 2 4.2q2.5 2.5 4 1.8c0.9-0.4 2.4-1.9 3.3-3.4 1.3-1.8 1.5-3 0.8-4.1-0.6-0.9-1.5-1.7-2.2-2-0.6-0.2-1.4 0.1-1.7 0.7zm-734.2 6.4c-1.1 0.7-1.5 1.8-1.1 2.9 0.4 1 1.7 2.1 2.9 2.6 1.5 0.6 2.7 0.5 3.6-0.2 1-0.8 1.1-1.7 0.4-3.2-0.5-1.1-1.7-2.3-2.5-2.6-0.9-0.4-2.4-0.2-3.3 0.5zm749.6-0.2c-0.8 0.7-1.3 1.8-1.2 2.5 0.1 0.8 1.2 1.2 2.4 1.1 1.5-0.2 2.3-0.9 2.3-2.2 0-1-0.5-2.1-1.1-2.2-0.6-0.2-1.7 0.2-2.4 0.8zm-10.9 2.8c-0.1 1.4 0.4 2 1.6 1.8 1-0.2 1.8-1 1.8-1.8 0-0.8-0.8-1.6-1.7-1.8q-1.6-0.3-1.7 1.8zm-137 7c-1.2 2.5-2.1 5.3-2.1 6.3 0 1 0.4 2.6 1 3.7 0.5 1.1 1.9 2 3 2 1.2 0 2.6-1.2 3.6-3.2 1-1.8 2.3-3.8 3-4.5 0.8-0.7 1.4-1.7 1.4-2.3 0-0.5-0.9-1-2-1-1.1 0-2.9-1.2-4-2.7l-1.9-2.8zm136.4-2.2c-1.1 1.2-1.4 2.4-0.9 3.7 0.4 1.1 0.8 5.1 0.9 8.7 0 3.7 0.5 7.2 1 7.7 0.7 0.7 2.1 0.6 4-0.3 2.5-1 3.1-2 3.7-5.6 0.5-3.6 0.2-5.3-1.5-8.3-1.2-2.2-2.4-4.8-2.8-5.8-0.3-1-1.1-1.9-1.6-1.9-0.6 0-1.9 0.8-2.8 1.8zm-78.9 10.2c-0.3 0.6 3.3 4.5 8 8.8 4.7 4.3 9.3 7.9 10.2 8.1 1 0.1 2.1-0.1 2.6-0.5 0.4-0.5-0.7-2.7-2.6-4.9-1.9-2.2-5-4.8-6.9-5.8-1.8-1-4.6-2.5-6.1-3.2-1.5-0.8-2.8-1.9-2.8-2.5 0-0.5-0.4-1-0.9-1-0.6 0-1.2 0.5-1.5 1zm98.9 0.7c-0.4 0.4-0.7 1.5-0.6 2.5 0.1 1.1 0.9 1.8 2.1 1.8 1.1 0 2.2-0.5 2.5-1.2 0.2-0.7-0.1-1.8-0.8-2.5-0.6-0.7-1.4-1.3-1.8-1.3-0.3 0-0.9 0.3-1.4 0.7zm-168 2.6c-0.4 0.7-0.3 1.6 0.2 2.1 0.4 0.5 1.4 0.6 2.1 0.2 0.7-0.3 1.2-1.2 1.2-2.1 0-0.8-0.6-1.5-1.4-1.5-0.8 0-1.8 0.6-2.1 1.3zm35.4 2.8c-0.5 1.1-0.7 2.6-0.4 3.4 0.3 0.9 1 1.5 1.5 1.5 0.6 0 1.7-0.2 2.5-0.5 0.8-0.2 1.5-1.5 1.4-2.8-0.1-1.5-0.9-2.6-2.1-3q-1.9-0.5-2.9 1.4zm-11.4 3.6c-0.4 0.4-0.7 1.5-0.6 2.5 0.1 1.1 0.9 1.8 2.1 1.8 1.1 0 2.3-0.7 2.5-1.7 0.3-1 0-2.1-0.7-2.5-0.7-0.4-1.5-0.7-1.9-0.7-0.3-0.1-0.9 0.2-1.4 0.6zm124.6 7.7c-2 1-2.6 2.3-3.1 6.2-0.3 2.7-1.1 6-1.8 7.2-0.6 1.2-1.1 2.3-0.9 2.3 0.1 0.1 1.3 0.3 2.7 0.5 1.5 0.3 3.1-0.2 4-1.1q1.5-1.6 4.3-1 2.7 0.5 2.7-0.7c0-0.7-0.6-2.7-1.2-4.5-1.1-2.6-1-3.6 0.2-5.8 1.4-2.3 1.4-2.7 0-3.5-0.8-0.5-2.2-0.9-3-0.9-0.8 0-2.6 0.5-3.9 1.3zm-248.9 4.2c-0.4 0.8-0.1 2.1 0.5 2.7 0.7 0.7 1.9 0.9 2.8 0.5 1-0.5 1.2-1.3 0.8-2.3-0.4-0.8-1.4-1.7-2.1-2-0.7-0.2-1.6 0.3-2 1.1zm-18.8 11.7c-0.3 0.7-0.3 2 0 3 0.3 1 1.6 2.1 2.9 2.6 1.2 0.5 2.7 0.6 3.2 0.1 0.7-0.5 0.2-1.9-1.2-3.9-1.3-1.7-2.7-3.1-3.3-3.1-0.6 0-1.3 0.6-1.6 1.3zm265.7 5.1c-3.4 1.7-4.4 2.9-4.8 5.2-0.2 1.6-0.2 4 0.2 5.2 0.3 1.4 1.2 2.1 2.2 2 1-0.1 2-1.4 2.3-2.8 0.4-1.6 1.4-2.6 3.1-2.8 1.3-0.2 3-0.9 3.7-1.5 0.7-0.6 1.3-2.1 1.3-3.2 0-1.1-0.6-2.5-1.3-3.2-0.7-0.7-1.5-1.3-1.8-1.2-0.3 0-2.5 1.1-4.9 2.3zm-258.4 1.4c-0.3 0.4-0.1 1.6 0.5 2.7 0.6 1.1 0.8 3.8 0.5 6-0.4 3.6-0.1 4.4 2.7 6.9 1.7 1.6 5.3 3.9 7.9 5.3 2.6 1.3 6.4 3.8 8.5 5.6 2 1.8 8.2 5.5 13.7 8.2 5.5 2.8 12.3 6.7 15 8.7 2.8 2.1 5.8 4.7 6.8 5.8 0.9 1.1 3.4 2.3 5.5 2.6 2.2 0.3 4.7 1.5 6 3 1.2 1.3 2.8 2.3 3.5 2.1 0.7-0.2 1.6-1 2.1-1.8 0.6-0.8 0.4-2.5-0.5-4.3-0.9-2-3.3-3.9-7.6-6-3.4-1.7-7.2-4-8.5-5.2-1.2-1.2-3.3-2.6-4.5-3.2-1.6-0.8-2.1-1.8-1.8-3.2 0.3-1.1-0.3-3.7-1.2-5.9-1-2.2-2.2-4.1-2.8-4.1-0.5-0.1-2-0.2-3.3-0.3-1.2-0.1-2.7-0.8-3.2-1.7-0.5-0.8-1-2.2-1-3.2 0-1-1-2-2.2-2.3-1.4-0.4-2.9 0-3.8 1-0.8 0.9-2.4 1.5-3.5 1.3-1.1-0.1-2.1-1.2-2.2-2.3-0.1-1.1-0.9-2.5-1.8-3.2-1.2-1-1.9-1-3.6 0-1.8 1.1-2.5 0.7-7.2-4.5-2.9-3.1-6.9-6.4-8.9-7.2-2.1-0.9-3.9-1.6-4.1-1.6-0.2 0-0.6 0.4-1 0.8zm-227.3 24.5c-0.4 0.7-0.7 3-0.5 5.2 0.1 2.2 0.4 4.8 0.7 5.8 0.2 1 1.1 1.7 1.9 1.7 0.8 0 1.7-0.7 1.9-1.7 0.3-1 0.6-4.1 0.8-7 0.4-4.9 0.2-5.3-1.8-5.3-1.3 0-2.6 0.6-3 1.3zm466.8 5.9c-1.3 1.4-2 3.1-1.7 4.1 0.4 1.2 1.1 1.6 2.8 1.1 1.2-0.3 2.7-1.1 3.4-1.7 0.6-0.6 1.3-2.1 1.5-3.2 0.2-1.4-0.3-2.1-1.7-2.3-1.1-0.1-3.1 0.8-4.3 2zm-16.3 15.9c-5.6 6.3-6.2 7.3-4.9 8.5 1.2 1.2 2.1 1.3 4.3 0.5 1.5-0.6 2.9-1.8 3.2-2.8 0.3-1 1.8-2.4 3.3-3.3 1.8-0.9 3-2.6 3.4-4.5 0.4-1.7 0.2-3.5-0.5-4.3-0.7-0.7-1.5-1.2-1.8-1.2-0.3 0-3.5 3.2-7 7.1zm-17.1 13.6c-3.6 3.2-8.9 7.4-11.7 9.3-2.8 2-5.1 4.1-5.1 4.8 0 0.7 0.6 1.5 1.3 1.8 0.7 0.3 3.7-1.1 6.7-3 3.2-2.1 7.4-3.9 10-4.3 2.5-0.3 5.3-1.4 6.3-2.4 1.3-1.4 1.6-2.8 1.1-6.1-0.3-2.3-0.9-4.6-1.3-5.1-0.4-0.5-3.7 1.8-7.3 5z"/>
</svg>